#N canvas 543 25 667 448 10;
#X obj 423 161 text define -k \$0-config;
#A set positions 0 0.75 -0.53 0.53 -0.75 0 -0.53 -0.53 0 -0.75 0.53
-0.53 0.75 0 0.53 0.53 \; rolloff 10 \; blur 0.01 \; gain 100 \;;
#X obj 6 375 xel.footer;
#X obj 5 7 xel.header xel.2d.proj.dbap;
#X obj 59 162 tgl 15 0 empty empty empty 17 7 0 10 -262144 -1 -1 0
1;
#N canvas 0 22 573 343 trajectory 0;
#X obj 54 191 t f f, f 15;
#X obj 54 279 pack f f, f 15;
#X obj 54 237 * 6.28319;
#X obj 141 237 * 6.28319;
#X obj 54 128 line 0;
#X obj 54 257 sin;
#X obj 141 257 sin;
#X obj 54 215 * 3;
#X obj 141 215 * 1;
#X obj 54 80 f 0;
#X obj 144 96 sel 1;
#X obj 54 301 outlet;
#X msg 17 104 stop;
#X obj 17 53 sel 0 1, f 13;
#X obj 144 118 f 0;
#X obj 17 25 inlet;
#X msg 54 104 \$1 \, 1 5000;
#X connect 0 0 7 0;
#X connect 0 1 8 0;
#X connect 1 0 11 0;
#X connect 2 0 5 0;
#X connect 3 0 6 0;
#X connect 4 0 0 0;
#X connect 4 0 10 0;
#X connect 5 0 1 0;
#X connect 6 0 1 1;
#X connect 7 0 2 0;
#X connect 8 0 3 0;
#X connect 9 0 16 0;
#X connect 10 0 14 0;
#X connect 10 1 9 1;
#X connect 12 0 4 0;
#X connect 13 0 12 0;
#X connect 13 1 9 0;
#X connect 14 0 9 0;
#X connect 15 0 13 0;
#X connect 16 0 4 0;
#X restore 59 186 pd trajectory;
#X msg 399 226 blur \$1;
#X msg 467 227 rolloff \$1;
#X obj 79 275 list prepend set;
#X obj 79 297 list trim;
#X obj 399 207 nbx 5 14 0.0001 1e+37 0 0 empty empty empty 0 -8 0 10
-262144 -1 -1 0.0001 256;
#X msg 79 320 0.098149 0.172186 0.539396 0.775264 0.210815 0.108169
0.080489 0.0781973;
#X obj 32 213 bng 15 250 50 0 empty empty empty 17 7 0 10 -262144 -1
-1;
#X text 4 31 The abstraction compute the gains for a set of loudspeakers
using distance based amplitude panning (DBAP). The principles of DBAP
are explained in the paper by Trond Lossius \, Pascal Baltazar and
Theo de la Hogue at the International Computer Music Conference (ICMC)
- 2009 Montreal. A facultative argument can be use to define the name
of a text object used to retrieves the positions of the loudspeakers
\, the rolloff and the blur values. The text object can be changed
thereafter using the symbol text followed by its name or all the parameters
can be changed independently using their specific symbol positions
\, blur or rolloff (the symbols are the same than the ones used to
define the parameters inside the text object)., f 90;
#X obj 467 207 nbx 5 14 1 1e+37 0 0 empty empty empty 0 -8 0 10 -262144
-1 -1 1 256;
#N canvas 217 367 450 300 pos 0;
#X obj 145 100 nbx 4 14 -1e+37 1e+37 0 0 empty empty empty 0 -8 0 10
-262144 -1 -1 0 256;
#X obj 100 100 nbx 4 14 -1e+37 1e+37 0 0 empty empty empty 0 -8 0 10
-262144 -1 -1 0 256;
#X obj 119 77 t b f;
#X obj 101 150 pack 1 f;
#X obj 101 18 r \$0-pos;
#X obj 101 40 unpack f f;
#X obj 101 172 outlet;
#X obj 164 19 inlet;
#X connect 0 0 2 0;
#X connect 1 0 3 0;
#X connect 2 0 1 0;
#X connect 2 1 3 1;
#X connect 3 0 6 0;
#X connect 4 0 5 0;
#X connect 5 0 1 0;
#X connect 5 1 0 0;
#X connect 7 0 5 0;
#X coords 0 -1 1 1 90 14 2 100 100;
#X restore 59 214 pd pos;
#X msg 241 221 text \$1;
#X obj 241 179 bng 15 250 50 0 empty empty empty 17 7 0 10 -262144
-1 -1;
#X obj 241 199 symbol \$0-config;
#X obj 59 253 xel.2d.proj.dbap \$0-config, f 49;
#X connect 3 0 4 0;
#X connect 4 0 14 0;
#X connect 5 0 18 1;
#X connect 6 0 18 1;
#X connect 7 0 8 0;
#X connect 8 0 10 0;
#X connect 9 0 5 0;
#X connect 11 0 18 0;
#X connect 13 0 6 0;
#X connect 14 0 18 0;
#X connect 15 0 18 1;
#X connect 16 0 17 0;
#X connect 17 0 15 0;
#X connect 18 0 7 0;
