#N struct 4663-t-scope float x array cells 4663-t-scope-value;
#N struct 4663-t-scope-value float x1 float y1 float x2 float y2 float
c1 float c2;
#N struct 4983-t-meter float x array ls 4983-t-meter-value;
#N struct 4983-t-meter-value float x1 float y1 float s1 float s2 float
s3 float s4 float c0 float c1 float c2 float c3 float c4 float v1 float
v2 float v3 float v4;
#N struct 4991-stuct-matrix float x1 float y1 float x2 float y2 float
xv float yv float c1 float c2 float val float index;
#N canvas 428 23 776 781 10;
#X declare -stdpath spam;
#N canvas 0 22 223 200 \$0-scope 0;
#X scalar 4663-t-scope 0 \; -1 1 -0.75 0.75 90 0 \; -0.75 1 -0.5 0.75
90 0 \; -0.5 1 -0.25 0.75 90 0 \; -0.25 1 0 0.75 90 0 \; 0 1 0.25 0.75
90 0 \; 0.25 1 0.5 0.75 90 0 \; 0.5 1 0.75 0.75 90 0 \; 0.75 1 1 0.75
90 0 \; -1 0.75 -0.75 0.5 999 0 \; -0.75 0.75 -0.5 0.5 999 0 \; -0.5
0.75 -0.25 0.5 999 0 \; -0.25 0.75 0 0.5 999 0 \; 0 0.75 0.25 0.5 999
0 \; 0.25 0.75 0.5 0.5 999 0 \; 0.5 0.75 0.75 0.5 999 0 \; 0.75 0.75
1 0.5 999 0 \; -1 0.5 -0.75 0.25 999 0 \; -0.75 0.5 -0.5 0.25 999 0
\; -0.5 0.5 -0.25 0.25 999 0 \; -0.25 0.5 0 0.25 999 0 \; 0 0.5 0.25
0.25 999 0 \; 0.25 0.5 0.5 0.25 999 0 \; 0.5 0.5 0.75 0.25 999 0 \;
0.75 0.5 1 0.25 999 0 \; -1 0.25 -0.75 -0 999 0 \; -0.75 0.25 -0.5
-0 999 0 \; -0.5 0.25 -0.25 -0 999 0 \; -0.25 0.25 0 -0 999 0 \; 0
0.25 0.25 -0 999 0 \; 0.25 0.25 0.5 -0 999 0 \; 0.5 0.25 0.75 -0 999
0 \; 0.75 0.25 1 -0 999 0 \; -1 -0 -0.75 -0.25 999 0 \; -0.75 -0 -0.5
-0.25 999 0 \; -0.5 -0 -0.25 -0.25 999 0 \; -0.25 -0 0 -0.25 999 0
\; 0 -0 0.25 -0.25 999 0 \; 0.25 -0 0.5 -0.25 999 0 \; 0.5 -0 0.75
-0.25 999 0 \; 0.75 -0 1 -0.25 999 0 \; -1 -0.25 -0.75 -0.5 999 0 \;
-0.75 -0.25 -0.5 -0.5 999 0 \; -0.5 -0.25 -0.25 -0.5 999 0 \; -0.25
-0.25 0 -0.5 999 0 \; 0 -0.25 0.25 -0.5 999 0 \; 0.25 -0.25 0.5 -0.5
999 0 \; 0.5 -0.25 0.75 -0.5 999 0 \; 0.75 -0.25 1 -0.5 999 0 \; -1
-0.5 -0.75 -0.75 999 0 \; -0.75 -0.5 -0.5 -0.75 999 0 \; -0.5 -0.5
-0.25 -0.75 999 0 \; -0.25 -0.5 0 -0.75 999 0 \; 0 -0.5 0.25 -0.75
999 0 \; 0.25 -0.5 0.5 -0.75 999 0 \; 0.5 -0.5 0.75 -0.75 999 0 \;
0.75 -0.5 1 -0.75 999 0 \; -1 -0.75 -0.75 -1 90 0 \; -0.75 -0.75 -0.5
-1 999 0 \; -0.5 -0.75 -0.25 -1 999 0 \; -0.25 -0.75 0 -1 999 0 \;
0 -0.75 0.25 -1 999 0 \; 0.25 -0.75 0.5 -1 999 0 \; 0.5 -0.75 0.75
-1 999 0 \; 0.75 -0.75 1 -1 90 0 \; \;;
#X coords -1 1 1 -1 201 201 2 100 100;
#X restore 8 519 pd \$0-scope;
#X obj 549 68 text define -k \$0-config;
#A set rolloff 8 \; blur 0.001 \; positions -0.530331 0.530329 -0.75
-1.67489e-06 -0.530329 -0.530332 2.51234e-06 -0.75 0.530332 -0.530328
0.75 3.34978e-06 0.530328 0.530333 -4.18723e-06 0.75 \; gain 130 \;
;
#X obj 32 289 *~;
#X obj 14 312 *~;
#X obj 46 312 nbx 5 14 0 100 0 0 empty \$0-gain empty 0 -8 0 10 -262144
-1 -1 60 256;
#X obj 14 356 *~, f 5;
#N canvas 0 23 450 300 init 0;
#X obj 13 42 loadbang;
#X obj 13 86 s \$0-gain;
#X msg 13 64 60;
#X connect 0 0 2 0;
#X connect 2 0 1 0;
#X restore 549 46 pd init;
#X obj 5 9 xel.header xel.2d.syn.pencil~;
#N canvas 0 22 450 300 gain 0;
#X obj 10 45 dbtorms;
#X obj 10 67 pack f 20;
#X obj 10 89 line~;
#X obj 10 25 inlet;
#X obj 10 111 outlet~;
#X connect 0 0 1 0;
#X connect 1 0 2 0;
#X connect 2 0 4 0;
#X connect 3 0 0 0;
#X restore 46 332 pd gain;
#X obj 32 267 osc~ 5;
#X obj 14 492 dac~ 1 2 3 4 5 6 7 8, f 51;
#X obj 548 91 declare -stdpath spam;
#X obj 368 280 bng 15 250 50 0 empty empty empty 17 7 0 10 -262144
-1 -1;
#X obj 14 244 osc~ 220;
#N canvas 0 22 450 300 \$0-meter 0;
#X scalar 4983-t-meter 0 \; -0.530331 0.530329 8 16 24 32 555 90 990
950 900 1 1 1 0 \; -0.75 -1.67489e-06 8 16 24 32 555 90 990 950 900
1 1 0 0 \; -0.530329 -0.530332 8 16 24 32 555 90 990 950 900 1 1 0
0 \; 2.51234e-06 -0.75 8 16 24 32 555 90 990 950 900 1 1 0 0 \; 0.530332
-0.530328 8 16 24 32 555 90 990 950 900 1 1 0 0 \; 0.75 3.34978e-06
8 16 24 32 555 90 990 950 900 1 1 0 0 \; 0.530328 0.530333 8 16 24
32 555 90 990 950 900 1 1 1 0 \; -4.18723e-06 0.75 8 16 24 32 555 90
990 950 900 1 1 1 0 \; \;;
#X coords -1 1 1 -1 201 201 2 100 100;
#X restore 297 519 pd \$0-meter;
#X obj 550 156 xel.dsp~;
#X obj 14 407 spam~ 64 xel.2d.gui.scope~ 8 8 \$0-scope \$0-config,
f 51;
#X obj 14 430 spam~ 64 xel.2d.proj.dbap~ 8 8 8 \$0-config, f 51;
#X obj 14 455 spam~ 8 ../zpt/zpt.2d.meter~ 8 \$0-meter \$0-config,
f 51;
#X obj 209 289 *~;
#X obj 191 312 *~;
#X obj 223 312 nbx 5 14 0 100 0 0 empty \$0-gain empty 0 -8 0 10 -262144
-1 -1 60 256;
#X obj 191 356 *~, f 5;
#N canvas 0 22 450 300 gain 0;
#X obj 10 45 dbtorms;
#X obj 10 67 pack f 20;
#X obj 10 89 line~;
#X obj 10 25 inlet;
#X obj 10 111 outlet~;
#X connect 0 0 1 0;
#X connect 1 0 2 0;
#X connect 2 0 4 0;
#X connect 3 0 0 0;
#X restore 223 332 pd gain;
#X obj 191 244 noise~;
#X obj 209 267 osc~ 7;
#N canvas 0 23 450 300 \$0-input-1 0;
#X scalar 4991-stuct-matrix -1 1 -0.75 0.75 -0.9375 0.875 999 0 0 0
\;;
#X scalar 4991-stuct-matrix -0.75 1 -0.5 0.75 -0.6875 0.875 999 0 0
1 \;;
#X scalar 4991-stuct-matrix -0.5 1 -0.25 0.75 -0.4375 0.875 999 0 0
2 \;;
#X scalar 4991-stuct-matrix -0.25 1 0 0.75 -0.1875 0.875 999 0 0 3
\;;
#X scalar 4991-stuct-matrix 0 1 0.25 0.75 0.0625 0.875 999 0 0 4 \;
;
#X scalar 4991-stuct-matrix 0.25 1 0.5 0.75 0.3125 0.875 999 0 0 5
\;;
#X scalar 4991-stuct-matrix 0.5 1 0.75 0.75 0.5625 0.875 999 0 0 6
\;;
#X scalar 4991-stuct-matrix 0.75 1 1 0.75 0.8125 0.875 999 0 0 7 \;
;
#X scalar 4991-stuct-matrix -1 0.75 -0.75 0.5 -0.9375 0.625 999 0 93
8 \;;
#X scalar 4991-stuct-matrix -0.75 0.75 -0.5 0.5 -0.6875 0.625 999 0
0 9 \;;
#X scalar 4991-stuct-matrix -0.5 0.75 -0.25 0.5 -0.4375 0.625 999 0
0 10 \;;
#X scalar 4991-stuct-matrix -0.25 0.75 0 0.5 -0.1875 0.625 999 0 0
11 \;;
#X scalar 4991-stuct-matrix 0 0.75 0.25 0.5 0.0625 0.625 999 0 0 12
\;;
#X scalar 4991-stuct-matrix 0.25 0.75 0.5 0.5 0.3125 0.625 999 0 0
13 \;;
#X scalar 4991-stuct-matrix 0.5 0.75 0.75 0.5 0.5625 0.625 999 0 0
14 \;;
#X scalar 4991-stuct-matrix 0.75 0.75 1 0.5 0.8125 0.625 999 0 0 15
\;;
#X scalar 4991-stuct-matrix -1 0.5 -0.75 0.25 -0.9375 0.375 999 0 0
16 \;;
#X scalar 4991-stuct-matrix -0.75 0.5 -0.5 0.25 -0.6875 0.375 999 0
0 17 \;;
#X scalar 4991-stuct-matrix -0.5 0.5 -0.25 0.25 -0.4375 0.375 999 0
0 18 \;;
#X scalar 4991-stuct-matrix -0.25 0.5 0 0.25 -0.1875 0.375 999 0 0
19 \;;
#X scalar 4991-stuct-matrix 0 0.5 0.25 0.25 0.0625 0.375 999 0 0 20
\;;
#X scalar 4991-stuct-matrix 0.25 0.5 0.5 0.25 0.3125 0.375 999 0 0
21 \;;
#X scalar 4991-stuct-matrix 0.5 0.5 0.75 0.25 0.5625 0.375 999 0 0
22 \;;
#X scalar 4991-stuct-matrix 0.75 0.5 1 0.25 0.8125 0.375 999 0 0 23
\;;
#X scalar 4991-stuct-matrix -1 0.25 -0.75 0 -0.9375 0.125 999 0 0 24
\;;
#X scalar 4991-stuct-matrix -0.75 0.25 -0.5 0 -0.6875 0.125 999 0 0
25 \;;
#X scalar 4991-stuct-matrix -0.5 0.25 -0.25 0 -0.4375 0.125 999 0 0
26 \;;
#X scalar 4991-stuct-matrix -0.25 0.25 0 0 -0.1875 0.125 999 0 0 27
\;;
#X scalar 4991-stuct-matrix 0 0.25 0.25 0 0.0625 0.125 999 0 0 28 \;
;
#X scalar 4991-stuct-matrix 0.25 0.25 0.5 0 0.3125 0.125 999 0 0 29
\;;
#X scalar 4991-stuct-matrix 0.5 0.25 0.75 0 0.5625 0.125 999 0 0 30
\;;
#X scalar 4991-stuct-matrix 0.75 0.25 1 0 0.8125 0.125 999 0 0 31 \;
;
#X scalar 4991-stuct-matrix -1 0 -0.75 -0.25 -0.9375 -0.125 999 0 0
32 \;;
#X scalar 4991-stuct-matrix -0.75 0 -0.5 -0.25 -0.6875 -0.125 999 0
0 33 \;;
#X scalar 4991-stuct-matrix -0.5 0 -0.25 -0.25 -0.4375 -0.125 999 0
0 34 \;;
#X scalar 4991-stuct-matrix -0.25 0 0 -0.25 -0.1875 -0.125 999 0 0
35 \;;
#X scalar 4991-stuct-matrix 0 0 0.25 -0.25 0.0625 -0.125 999 0 0 36
\;;
#X scalar 4991-stuct-matrix 0.25 0 0.5 -0.25 0.3125 -0.125 999 0 0
37 \;;
#X scalar 4991-stuct-matrix 0.5 0 0.75 -0.25 0.5625 -0.125 999 0 0
38 \;;
#X scalar 4991-stuct-matrix 0.75 0 1 -0.25 0.8125 -0.125 999 0 0 39
\;;
#X scalar 4991-stuct-matrix -1 -0.25 -0.75 -0.5 -0.9375 -0.375 999
0 88 40 \;;
#X scalar 4991-stuct-matrix -0.75 -0.25 -0.5 -0.5 -0.6875 -0.375 999
0 0 41 \;;
#X scalar 4991-stuct-matrix -0.5 -0.25 -0.25 -0.5 -0.4375 -0.375 999
0 0 42 \;;
#X scalar 4991-stuct-matrix -0.25 -0.25 0 -0.5 -0.1875 -0.375 999 0
0 43 \;;
#X scalar 4991-stuct-matrix 0 -0.25 0.25 -0.5 0.0625 -0.375 999 0 0
44 \;;
#X scalar 4991-stuct-matrix 0.25 -0.25 0.5 -0.5 0.3125 -0.375 999 0
0 45 \;;
#X scalar 4991-stuct-matrix 0.5 -0.25 0.75 -0.5 0.5625 -0.375 999 0
0 46 \;;
#X scalar 4991-stuct-matrix 0.75 -0.25 1 -0.5 0.8125 -0.375 999 0 0
47 \;;
#X scalar 4991-stuct-matrix -1 -0.5 -0.75 -0.75 -0.9375 -0.625 999
0 0 48 \;;
#X scalar 4991-stuct-matrix -0.75 -0.5 -0.5 -0.75 -0.6875 -0.625 999
0 0 49 \;;
#X scalar 4991-stuct-matrix -0.5 -0.5 -0.25 -0.75 -0.4375 -0.625 999
0 0 50 \;;
#X scalar 4991-stuct-matrix -0.25 -0.5 0 -0.75 -0.1875 -0.625 999 0
0 51 \;;
#X scalar 4991-stuct-matrix 0 -0.5 0.25 -0.75 0.0625 -0.625 999 0 0
52 \;;
#X scalar 4991-stuct-matrix 0.25 -0.5 0.5 -0.75 0.3125 -0.625 999 0
0 53 \;;
#X scalar 4991-stuct-matrix 0.5 -0.5 0.75 -0.75 0.5625 -0.625 999 0
0 54 \;;
#X scalar 4991-stuct-matrix 0.75 -0.5 1 -0.75 0.8125 -0.625 999 0 0
55 \;;
#X scalar 4991-stuct-matrix -1 -0.75 -0.75 -1 -0.9375 -0.875 999 0
0 56 \;;
#X scalar 4991-stuct-matrix -0.75 -0.75 -0.5 -1 -0.6875 -0.875 999
0 0 57 \;;
#X scalar 4991-stuct-matrix -0.5 -0.75 -0.25 -1 -0.4375 -0.875 999
0 0 58 \;;
#X scalar 4991-stuct-matrix -0.25 -0.75 0 -1 -0.1875 -0.875 999 0 0
59 \;;
#X scalar 4991-stuct-matrix 0 -0.75 0.25 -1 0.0625 -0.875 999 0 0 60
\;;
#X scalar 4991-stuct-matrix 0.25 -0.75 0.5 -1 0.3125 -0.875 999 0 0
61 \;;
#X scalar 4991-stuct-matrix 0.5 -0.75 0.75 -1 0.5625 -0.875 999 0 0
62 \;;
#X scalar 4991-stuct-matrix 0.75 -0.75 1 -1 0.8125 -0.875 999 0 0 63
\;;
#X coords -1 1 1 -1 201 201 2 100 100;
#X restore 533 284 pd \$0-input-1;
#X obj 368 300 xel.2d.gui.mat \$0-input-1 8 8 -1 1, f 13;
#X obj 14 383 spam~ 64 xel.2d.syn.pencil~ 8 8 2, f 51;
#X obj 4 741 xel.footer;
#N canvas 105 539 450 309 layer.manager 0;
#X obj 20 25 inlet;
#X obj 115 36 + 1;
#X obj 20 80 list prepend 1;
#X obj 70 177 xel.2d.mat.history \$0-history;
#X msg 70 154 store \$1;
#X obj 70 102 list split 1, f 21;
#X obj 102 219 list prepend set;
#X obj 102 241 list trim;
#X obj 115 58 t f f;
#X obj 142 153 list trim;
#X obj 20 273 outlet;
#X obj 115 15 inlet;
#X obj 222 17 text define -k \$0-history;
#A set matrix 8 8 1 1 1 1 1 1 1 1 0 0 0 0 0 0 0 0 0 0 0 0 0 0 0 0 0
0 0 0 0 0 0 0 0 0 0 0 0 0 0 0 0 0 0 0 0 0 0 0 0 0 0 0 0 0 0 0 1 0 0
0 0 0 0 1 \; matrix 8 8 0 0 0 0 0 0 0 0 0.93 0 0 0 0 0 0 0 0 0 0 0
0 0 0 0 0 0 0 0 0 0 0 0 0 0 0 0 0 0 0 0 0.88 0 0 0 0 0 0 0 0 0 0 0
0 0 0 0 0 0 0 0 0 0 0 0 \; matrix 8 8 0 0 0 0 0 0 0 0 0 0 0 0 0 0 0
0 0 0 0 0.86 0 0 0 0 0 0 0 0 1 0 0 0 0 0 0 0 0 0 0 0 0 0 0 0 0 0 0
0 0 0 0 0 0 0 0 0 0 0 0 0 0 0 0 0 \;;
#X obj 70 273 outlet;
#X obj 70 199 t b a;
#X obj 70 124 - 1;
#X obj 147 78 - 1;
#X connect 0 0 2 0;
#X connect 1 0 8 0;
#X connect 2 0 5 0;
#X connect 2 0 10 0;
#X connect 3 0 14 0;
#X connect 4 0 3 0;
#X connect 5 0 15 0;
#X connect 5 1 9 0;
#X connect 6 0 7 0;
#X connect 7 0 13 0;
#X connect 8 0 2 1;
#X connect 8 1 16 0;
#X connect 9 0 3 0;
#X connect 11 0 1 0;
#X connect 14 1 6 0;
#X connect 15 0 4 0;
#X connect 16 0 3 0;
#X restore 368 357 pd layer.manager;
#X obj 477 336 hradio 15 1 0 2 empty empty empty 0 -8 0 10 -262144
-1 -1 1;
#X text 476 315 Layer;
#X text 4 31 The abstraction synthesizes independently the signals
of each soxel with one or several sound sources and depending on the
coefficients of one or several matrices. Each sound is associated to
a layer and feeds the signal of the soxels depending on a matrix of
coefficients., f 69;
#X text 4 96 The two first arguments are the size of the matrix \,
the number of rows and the number of columns \, and the third argument
is the number of layers \, the number of input sound sources., f 69
;
#X text 4 147 The first inlets are for the sound sources and the last
inlet expects the matrices of coefficients. Each matrix of coefficient
must be prepended by the indice that defined the layer \, or the sound
source \, it is associated to., f 69;
#X text 364 237 Select a layer and draw the matrix of coefficient;
#X connect 2 0 3 1;
#X connect 3 0 5 0;
#X connect 4 0 8 0;
#X connect 5 0 28 0;
#X connect 8 0 5 1;
#X connect 9 0 2 0;
#X connect 9 0 2 1;
#X connect 12 0 27 0;
#X connect 13 0 3 0;
#X connect 17 0 10 0;
#X connect 17 0 18 0;
#X connect 17 1 10 1;
#X connect 17 1 18 1;
#X connect 17 2 10 2;
#X connect 17 2 18 2;
#X connect 17 3 10 3;
#X connect 17 3 18 3;
#X connect 17 4 10 4;
#X connect 17 4 18 4;
#X connect 17 5 10 5;
#X connect 17 5 18 5;
#X connect 17 6 10 6;
#X connect 17 6 18 6;
#X connect 17 7 10 7;
#X connect 17 7 18 7;
#X connect 19 0 20 1;
#X connect 20 0 22 0;
#X connect 21 0 23 0;
#X connect 22 0 28 1;
#X connect 23 0 22 1;
#X connect 24 0 20 0;
#X connect 25 0 19 0;
#X connect 25 0 19 1;
#X connect 27 0 30 0;
#X connect 28 0 16 0;
#X connect 28 0 17 0;
#X connect 28 1 16 1;
#X connect 28 1 17 1;
#X connect 28 2 16 2;
#X connect 28 2 17 2;
#X connect 28 3 16 3;
#X connect 28 3 17 3;
#X connect 28 4 16 4;
#X connect 28 4 17 4;
#X connect 28 5 16 5;
#X connect 28 5 17 5;
#X connect 28 6 16 6;
#X connect 28 6 17 6;
#X connect 28 7 16 7;
#X connect 28 7 17 7;
#X connect 28 8 16 8;
#X connect 28 8 17 8;
#X connect 28 9 16 9;
#X connect 28 9 17 9;
#X connect 28 10 16 10;
#X connect 28 10 17 10;
#X connect 28 11 16 11;
#X connect 28 11 17 11;
#X connect 28 12 16 12;
#X connect 28 12 17 12;
#X connect 28 13 16 13;
#X connect 28 13 17 13;
#X connect 28 14 16 14;
#X connect 28 14 17 14;
#X connect 28 15 16 15;
#X connect 28 15 17 15;
#X connect 28 16 16 16;
#X connect 28 16 17 16;
#X connect 28 17 16 17;
#X connect 28 17 17 17;
#X connect 28 18 16 18;
#X connect 28 18 17 18;
#X connect 28 19 16 19;
#X connect 28 19 17 19;
#X connect 28 20 16 20;
#X connect 28 20 17 20;
#X connect 28 21 16 21;
#X connect 28 21 17 21;
#X connect 28 22 16 22;
#X connect 28 22 17 22;
#X connect 28 23 16 23;
#X connect 28 23 17 23;
#X connect 28 24 16 24;
#X connect 28 24 17 24;
#X connect 28 25 16 25;
#X connect 28 25 17 25;
#X connect 28 26 16 26;
#X connect 28 26 17 26;
#X connect 28 27 16 27;
#X connect 28 27 17 27;
#X connect 28 28 16 28;
#X connect 28 28 17 28;
#X connect 28 29 16 29;
#X connect 28 29 17 29;
#X connect 28 30 16 30;
#X connect 28 30 17 30;
#X connect 28 31 16 31;
#X connect 28 31 17 31;
#X connect 28 32 16 32;
#X connect 28 32 17 32;
#X connect 28 33 16 33;
#X connect 28 33 17 33;
#X connect 28 34 16 34;
#X connect 28 34 17 34;
#X connect 28 35 16 35;
#X connect 28 35 17 35;
#X connect 28 36 16 36;
#X connect 28 36 17 36;
#X connect 28 37 16 37;
#X connect 28 37 17 37;
#X connect 28 38 16 38;
#X connect 28 38 17 38;
#X connect 28 39 16 39;
#X connect 28 39 17 39;
#X connect 28 40 16 40;
#X connect 28 40 17 40;
#X connect 28 41 16 41;
#X connect 28 41 17 41;
#X connect 28 42 16 42;
#X connect 28 42 17 42;
#X connect 28 43 16 43;
#X connect 28 43 17 43;
#X connect 28 44 16 44;
#X connect 28 44 17 44;
#X connect 28 45 16 45;
#X connect 28 45 17 45;
#X connect 28 46 16 46;
#X connect 28 46 17 46;
#X connect 28 47 16 47;
#X connect 28 47 17 47;
#X connect 28 48 16 48;
#X connect 28 48 17 48;
#X connect 28 49 16 49;
#X connect 28 49 17 49;
#X connect 28 50 16 50;
#X connect 28 50 17 50;
#X connect 28 51 16 51;
#X connect 28 51 17 51;
#X connect 28 52 16 52;
#X connect 28 52 17 52;
#X connect 28 53 16 53;
#X connect 28 53 17 53;
#X connect 28 54 16 54;
#X connect 28 54 17 54;
#X connect 28 55 16 55;
#X connect 28 55 17 55;
#X connect 28 56 16 56;
#X connect 28 56 17 56;
#X connect 28 57 16 57;
#X connect 28 57 17 57;
#X connect 28 58 16 58;
#X connect 28 58 17 58;
#X connect 28 59 16 59;
#X connect 28 59 17 59;
#X connect 28 60 16 60;
#X connect 28 60 17 60;
#X connect 28 61 16 61;
#X connect 28 61 17 61;
#X connect 28 62 16 62;
#X connect 28 62 17 62;
#X connect 28 63 16 63;
#X connect 28 63 17 63;
#X connect 30 0 28 2;
#X connect 30 1 27 0;
#X connect 31 0 30 1;
