#N struct 1072-stuct-matrix float x1 float y1 float x2 float y2 float
xv float yv float c1 float c2 float val float index;
#N struct 1078-stuct-matrix float x1 float y1 float x2 float y2 float
xv float yv float c1 float c2 float val float index;
#N canvas 180 23 1220 813 10;
#X declare -path ../;
#X obj 6 7 xel.header xel.2d.art;
#N canvas 0 22 1029 742 \$0-canvas 0;
#X scalar 1072-stuct-matrix -1 1 -0.818182 0.818182 -0.954545 0.909091
999 0 0 0 \;;
#X scalar 1072-stuct-matrix -0.818182 1 -0.636364 0.818182 -0.772727
0.909091 999 0 0 1 \;;
#X scalar 1072-stuct-matrix -0.636364 1 -0.454545 0.818182 -0.590909
0.909091 999 0 0 2 \;;
#X scalar 1072-stuct-matrix -0.454545 1 -0.272727 0.818182 -0.409091
0.909091 999 0 0 3 \;;
#X scalar 1072-stuct-matrix -0.272727 1 -0.0909091 0.818182 -0.227273
0.909091 999 0 0 4 \;;
#X scalar 1072-stuct-matrix -0.0909091 1 0.0909091 0.818182 -0.0454545
0.909091 999 0 0 5 \;;
#X scalar 1072-stuct-matrix 0.0909091 1 0.272727 0.818182 0.136364
0.909091 999 0 0 6 \;;
#X scalar 1072-stuct-matrix 0.272727 1 0.454545 0.818182 0.318182 0.909091
999 0 0 7 \;;
#X scalar 1072-stuct-matrix 0.454545 1 0.636364 0.818182 0.5 0.909091
999 0 0 8 \;;
#X scalar 1072-stuct-matrix 0.636364 1 0.818182 0.818182 0.681818 0.909091
999 0 0 9 \;;
#X scalar 1072-stuct-matrix 0.818182 1 1 0.818182 0.863636 0.909091
999 0 0 10 \;;
#X scalar 1072-stuct-matrix -1 0.818182 -0.818182 0.636364 -0.954545
0.727273 999 0 0 11 \;;
#X scalar 1072-stuct-matrix -0.818182 0.818182 -0.636364 0.636364 -0.772727
0.727273 999 0 0 12 \;;
#X scalar 1072-stuct-matrix -0.636364 0.818182 -0.454545 0.636364 -0.590909
0.727273 999 0 0 13 \;;
#X scalar 1072-stuct-matrix -0.454545 0.818182 -0.272727 0.636364 -0.409091
0.727273 999 0 0 14 \;;
#X scalar 1072-stuct-matrix -0.272727 0.818182 -0.0909091 0.636364
-0.227273 0.727273 999 0 0 15 \;;
#X scalar 1072-stuct-matrix -0.0909091 0.818182 0.0909091 0.636364
-0.0454545 0.727273 999 0 0 16 \;;
#X scalar 1072-stuct-matrix 0.0909091 0.818182 0.272727 0.636364 0.136364
0.727273 999 0 0 17 \;;
#X scalar 1072-stuct-matrix 0.272727 0.818182 0.454545 0.636364 0.318182
0.727273 999 0 0 18 \;;
#X scalar 1072-stuct-matrix 0.454545 0.818182 0.636364 0.636364 0.5
0.727273 999 0 0 19 \;;
#X scalar 1072-stuct-matrix 0.636364 0.818182 0.818182 0.636364 0.681818
0.727273 999 0 0 20 \;;
#X scalar 1072-stuct-matrix 0.818182 0.818182 1 0.636364 0.863636 0.727273
999 0 0 21 \;;
#X scalar 1072-stuct-matrix -1 0.636364 -0.818182 0.454545 -0.954545
0.545455 999 0 0 22 \;;
#X scalar 1072-stuct-matrix -0.818182 0.636364 -0.636364 0.454545 -0.772727
0.545455 999 0 0 23 \;;
#X scalar 1072-stuct-matrix -0.636364 0.636364 -0.454545 0.454545 -0.590909
0.545455 999 0 0 24 \;;
#X scalar 1072-stuct-matrix -0.454545 0.636364 -0.272727 0.454545 -0.409091
0.545455 999 0 0 25 \;;
#X scalar 1072-stuct-matrix -0.272727 0.636364 -0.0909091 0.454545
-0.227273 0.545455 999 0 0 26 \;;
#X scalar 1072-stuct-matrix -0.0909091 0.636364 0.0909091 0.454545
-0.0454545 0.545455 999 0 0 27 \;;
#X scalar 1072-stuct-matrix 0.0909091 0.636364 0.272727 0.454545 0.136364
0.545455 999 0 0 28 \;;
#X scalar 1072-stuct-matrix 0.272727 0.636364 0.454545 0.454545 0.318182
0.545455 999 0 0 29 \;;
#X scalar 1072-stuct-matrix 0.454545 0.636364 0.636364 0.454545 0.5
0.545455 999 0 0 30 \;;
#X scalar 1072-stuct-matrix 0.636364 0.636364 0.818182 0.454545 0.681818
0.545455 999 0 0 31 \;;
#X scalar 1072-stuct-matrix 0.818182 0.636364 1 0.454545 0.863636 0.545455
999 0 0 32 \;;
#X scalar 1072-stuct-matrix -1 0.454545 -0.818182 0.272727 -0.954545
0.363636 999 0 0 33 \;;
#X scalar 1072-stuct-matrix -0.818182 0.454545 -0.636364 0.272727 -0.772727
0.363636 999 0 0 34 \;;
#X scalar 1072-stuct-matrix -0.636364 0.454545 -0.454545 0.272727 -0.590909
0.363636 999 0 0 35 \;;
#X scalar 1072-stuct-matrix -0.454545 0.454545 -0.272727 0.272727 -0.409091
0.363636 999 0 0 36 \;;
#X scalar 1072-stuct-matrix -0.272727 0.454545 -0.0909091 0.272727
-0.227273 0.363636 999 0 0 37 \;;
#X scalar 1072-stuct-matrix -0.0909091 0.454545 0.0909091 0.272727
-0.0454545 0.363636 999 0 0 38 \;;
#X scalar 1072-stuct-matrix 0.0909091 0.454545 0.272727 0.272727 0.136364
0.363636 999 0 0 39 \;;
#X scalar 1072-stuct-matrix 0.272727 0.454545 0.454545 0.272727 0.318182
0.363636 999 0 0 40 \;;
#X scalar 1072-stuct-matrix 0.454545 0.454545 0.636364 0.272727 0.5
0.363636 999 0 0 41 \;;
#X scalar 1072-stuct-matrix 0.636364 0.454545 0.818182 0.272727 0.681818
0.363636 999 0 0 42 \;;
#X scalar 1072-stuct-matrix 0.818182 0.454545 1 0.272727 0.863636 0.363636
999 0 0 43 \;;
#X scalar 1072-stuct-matrix -1 0.272727 -0.818182 0.0909091 -0.954545
0.181818 999 0 0 44 \;;
#X scalar 1072-stuct-matrix -0.818182 0.272727 -0.636364 0.0909091
-0.772727 0.181818 999 0 0 45 \;;
#X scalar 1072-stuct-matrix -0.636364 0.272727 -0.454545 0.0909091
-0.590909 0.181818 999 0 0 46 \;;
#X scalar 1072-stuct-matrix -0.454545 0.272727 -0.272727 0.0909091
-0.409091 0.181818 999 0 0 47 \;;
#X scalar 1072-stuct-matrix -0.272727 0.272727 -0.0909091 0.0909091
-0.227273 0.181818 999 0 0 48 \;;
#X scalar 1072-stuct-matrix -0.0909091 0.272727 0.0909091 0.0909091
-0.0454545 0.181818 999 0 0 49 \;;
#X scalar 1072-stuct-matrix 0.0909091 0.272727 0.272727 0.0909091 0.136364
0.181818 999 0 0 50 \;;
#X scalar 1072-stuct-matrix 0.272727 0.272727 0.454545 0.0909091 0.318182
0.181818 999 0 0 51 \;;
#X scalar 1072-stuct-matrix 0.454545 0.272727 0.636364 0.0909091 0.5
0.181818 999 0 0 52 \;;
#X scalar 1072-stuct-matrix 0.636364 0.272727 0.818182 0.0909091 0.681818
0.181818 999 0 0 53 \;;
#X scalar 1072-stuct-matrix 0.818182 0.272727 1 0.0909091 0.863636
0.181818 999 0 0 54 \;;
#X scalar 1072-stuct-matrix -1 0.0909091 -0.818182 -0.0909091 -0.954545
-2.98023e-08 999 0 0 55 \;;
#X scalar 1072-stuct-matrix -0.818182 0.0909091 -0.636364 -0.0909091
-0.772727 -2.98023e-08 999 0 0 56 \;;
#X scalar 1072-stuct-matrix -0.636364 0.0909091 -0.454545 -0.0909091
-0.590909 -2.98023e-08 999 0 0 57 \;;
#X scalar 1072-stuct-matrix -0.454545 0.0909091 -0.272727 -0.0909091
-0.409091 -2.98023e-08 999 0 0 58 \;;
#X scalar 1072-stuct-matrix -0.272727 0.0909091 -0.0909091 -0.0909091
-0.227273 -2.98023e-08 999 0 0 59 \;;
#X scalar 1072-stuct-matrix -0.0909091 0.0909091 0.0909091 -0.0909091
-0.0454545 -2.98023e-08 999 0 0 60 \;;
#X scalar 1072-stuct-matrix 0.0909091 0.0909091 0.272727 -0.0909091
0.136364 -2.98023e-08 999 0 0 61 \;;
#X scalar 1072-stuct-matrix 0.272727 0.0909091 0.454545 -0.0909091
0.318182 -2.98023e-08 999 0 0 62 \;;
#X scalar 1072-stuct-matrix 0.454545 0.0909091 0.636364 -0.0909091
0.5 -2.98023e-08 999 0 0 63 \;;
#X scalar 1072-stuct-matrix 0.636364 0.0909091 0.818182 -0.0909091
0.681818 -2.98023e-08 999 0 0 64 \;;
#X scalar 1072-stuct-matrix 0.818182 0.0909091 1 -0.0909091 0.863636
-2.98023e-08 999 0 0 65 \;;
#X scalar 1072-stuct-matrix -1 -0.0909091 -0.818182 -0.272727 -0.954545
-0.181818 999 0 0 66 \;;
#X scalar 1072-stuct-matrix -0.818182 -0.0909091 -0.636364 -0.272727
-0.772727 -0.181818 999 0 0 67 \;;
#X scalar 1072-stuct-matrix -0.636364 -0.0909091 -0.454545 -0.272727
-0.590909 -0.181818 999 0 0 68 \;;
#X scalar 1072-stuct-matrix -0.454545 -0.0909091 -0.272727 -0.272727
-0.409091 -0.181818 999 0 0 69 \;;
#X scalar 1072-stuct-matrix -0.272727 -0.0909091 -0.0909091 -0.272727
-0.227273 -0.181818 999 0 0 70 \;;
#X scalar 1072-stuct-matrix -0.0909091 -0.0909091 0.0909091 -0.272727
-0.0454545 -0.181818 999 0 0 71 \;;
#X scalar 1072-stuct-matrix 0.0909091 -0.0909091 0.272727 -0.272727
0.136364 -0.181818 999 0 0 72 \;;
#X scalar 1072-stuct-matrix 0.272727 -0.0909091 0.454545 -0.272727
0.318182 -0.181818 999 0 0 73 \;;
#X scalar 1072-stuct-matrix 0.454545 -0.0909091 0.636364 -0.272727
0.5 -0.181818 999 0 0 74 \;;
#X scalar 1072-stuct-matrix 0.636364 -0.0909091 0.818182 -0.272727
0.681818 -0.181818 999 0 0 75 \;;
#X scalar 1072-stuct-matrix 0.818182 -0.0909091 1 -0.272727 0.863636
-0.181818 999 0 0 76 \;;
#X scalar 1072-stuct-matrix -1 -0.272727 -0.818182 -0.454545 -0.954545
-0.363636 999 0 0 77 \;;
#X scalar 1072-stuct-matrix -0.818182 -0.272727 -0.636364 -0.454545
-0.772727 -0.363636 999 0 0 78 \;;
#X scalar 1072-stuct-matrix -0.636364 -0.272727 -0.454545 -0.454545
-0.590909 -0.363636 999 0 0 79 \;;
#X scalar 1072-stuct-matrix -0.454545 -0.272727 -0.272727 -0.454545
-0.409091 -0.363636 999 0 0 80 \;;
#X scalar 1072-stuct-matrix -0.272727 -0.272727 -0.0909091 -0.454545
-0.227273 -0.363636 999 0 0 81 \;;
#X scalar 1072-stuct-matrix -0.0909091 -0.272727 0.0909091 -0.454545
-0.0454545 -0.363636 999 0 0 82 \;;
#X scalar 1072-stuct-matrix 0.0909091 -0.272727 0.272727 -0.454545
0.136364 -0.363636 999 0 0 83 \;;
#X scalar 1072-stuct-matrix 0.272727 -0.272727 0.454545 -0.454545 0.318182
-0.363636 999 0 0 84 \;;
#X scalar 1072-stuct-matrix 0.454545 -0.272727 0.636364 -0.454545 0.5
-0.363636 999 0 0 85 \;;
#X scalar 1072-stuct-matrix 0.636364 -0.272727 0.818182 -0.454545 0.681818
-0.363636 999 0 0 86 \;;
#X scalar 1072-stuct-matrix 0.818182 -0.272727 1 -0.454545 0.863636
-0.363636 999 0 0 87 \;;
#X scalar 1072-stuct-matrix -1 -0.454545 -0.818182 -0.636364 -0.954545
-0.545455 999 0 0 88 \;;
#X scalar 1072-stuct-matrix -0.818182 -0.454545 -0.636364 -0.636364
-0.772727 -0.545455 999 0 0 89 \;;
#X scalar 1072-stuct-matrix -0.636364 -0.454545 -0.454545 -0.636364
-0.590909 -0.545455 999 0 0 90 \;;
#X scalar 1072-stuct-matrix -0.454545 -0.454545 -0.272727 -0.636364
-0.409091 -0.545455 999 0 0 91 \;;
#X scalar 1072-stuct-matrix -0.272727 -0.454545 -0.0909091 -0.636364
-0.227273 -0.545455 999 0 0 92 \;;
#X scalar 1072-stuct-matrix -0.0909091 -0.454545 0.0909091 -0.636364
-0.0454545 -0.545455 999 0 0 93 \;;
#X scalar 1072-stuct-matrix 0.0909091 -0.454545 0.272727 -0.636364
0.136364 -0.545455 999 0 0 94 \;;
#X scalar 1072-stuct-matrix 0.272727 -0.454545 0.454545 -0.636364 0.318182
-0.545455 999 0 0 95 \;;
#X scalar 1072-stuct-matrix 0.454545 -0.454545 0.636364 -0.636364 0.5
-0.545455 999 0 0 96 \;;
#X scalar 1072-stuct-matrix 0.636364 -0.454545 0.818182 -0.636364 0.681818
-0.545455 999 0 0 97 \;;
#X scalar 1072-stuct-matrix 0.818182 -0.454545 1 -0.636364 0.863636
-0.545455 999 0 0 98 \;;
#X scalar 1072-stuct-matrix -1 -0.636364 -0.818182 -0.818182 -0.954545
-0.727273 999 0 0 99 \;;
#X scalar 1072-stuct-matrix -0.818182 -0.636364 -0.636364 -0.818182
-0.772727 -0.727273 999 0 0 100 \;;
#X scalar 1072-stuct-matrix -0.636364 -0.636364 -0.454545 -0.818182
-0.590909 -0.727273 999 0 0 101 \;;
#X scalar 1072-stuct-matrix -0.454545 -0.636364 -0.272727 -0.818182
-0.409091 -0.727273 999 0 0 102 \;;
#X scalar 1072-stuct-matrix -0.272727 -0.636364 -0.0909091 -0.818182
-0.227273 -0.727273 999 0 0 103 \;;
#X scalar 1072-stuct-matrix -0.0909091 -0.636364 0.0909091 -0.818182
-0.0454545 -0.727273 999 0 0 104 \;;
#X scalar 1072-stuct-matrix 0.0909091 -0.636364 0.272727 -0.818182
0.136364 -0.727273 999 0 0 105 \;;
#X scalar 1072-stuct-matrix 0.272727 -0.636364 0.454545 -0.818182 0.318182
-0.727273 999 0 0 106 \;;
#X scalar 1072-stuct-matrix 0.454545 -0.636364 0.636364 -0.818182 0.5
-0.727273 999 0 0 107 \;;
#X scalar 1072-stuct-matrix 0.636364 -0.636364 0.818182 -0.818182 0.681818
-0.727273 999 0 0 108 \;;
#X scalar 1072-stuct-matrix 0.818182 -0.636364 1 -0.818182 0.863636
-0.727273 999 0 0 109 \;;
#X scalar 1072-stuct-matrix -1 -0.818182 -0.818182 -1 -0.954545 -0.909091
999 0 0 110 \;;
#X scalar 1072-stuct-matrix -0.818182 -0.818182 -0.636364 -1 -0.772727
-0.909091 999 0 0 111 \;;
#X scalar 1072-stuct-matrix -0.636364 -0.818182 -0.454545 -1 -0.590909
-0.909091 999 0 0 112 \;;
#X scalar 1072-stuct-matrix -0.454545 -0.818182 -0.272727 -1 -0.409091
-0.909091 999 0 0 113 \;;
#X scalar 1072-stuct-matrix -0.272727 -0.818182 -0.0909091 -1 -0.227273
-0.909091 999 0 0 114 \;;
#X scalar 1072-stuct-matrix -0.0909091 -0.818182 0.0909091 -1 -0.0454545
-0.909091 999 0 0 115 \;;
#X scalar 1072-stuct-matrix 0.0909091 -0.818182 0.272727 -1 0.136364
-0.909091 999 0 0 116 \;;
#X scalar 1072-stuct-matrix 0.272727 -0.818182 0.454545 -1 0.318182
-0.909091 999 0 0 117 \;;
#X scalar 1072-stuct-matrix 0.454545 -0.818182 0.636364 -1 0.5 -0.909091
999 0 0 118 \;;
#X scalar 1072-stuct-matrix 0.636364 -0.818182 0.818182 -1 0.681818
-0.909091 999 0 0 119 \;;
#X scalar 1072-stuct-matrix 0.818182 -0.818182 1 -1 0.863636 -0.909091
999 0 0 120 \;;
#X coords -1 1 1 -1 270 270 2 100 100;
#X restore 159 60 pd \$0-canvas;
#X obj 239 594 r \$0-in;
#X obj 416 668 pack f f 1;
#X obj 416 714 list trim;
#X obj 733 9 text define -k \$0-pattern;
#A set;
#X obj 733 31 r \$0-pattern-history;
#X obj 6 30 art/pattern;
#X obj 239 625 xel.2d.mat.brush 11 11;
#X obj 239 647 xel.2d.gui.mat \$0-canvas 11 11;
#X obj 160 375 hradio 15 1 0 3 \$0-frame-recall-r \$0-frame-recall-r2
empty 0 -8 0 10 -262144 -1 -1 4.24242;
#X obj 159 336 hradio 15 1 0 18 \$0-frame-store-s \$0-frame-store-r
empty 0 -8 0 10 -191407 -1 -1 2;
#X obj 466 530 text define -k \$0-frame;
#A set matrix 5 5 0.42 0.12 0 0 0 0.29 0.49 0 0 0 0 0 0 0 0 0 0 0 0
0 0 0 0 0 0 \; matrix 5 5 0.42 0.12 0 0 1.16 0.29 0.49 0 0 1.16 0 0
0 1.16 0 0 0 1.16 0 0 0 1.16 0 0 0 \; matrix 5 5 0 0 0 0 1.16 0 0 0.68
0.34 1.16 0.68 0.34 0 1.42 0 0 0.26 1.16 0.68 0.34 0 1.16 0 0 0.26
\;;
#X obj 734 246 text size \$0-frame;
#X msg 734 268 number \$1;
#X obj 200 697 s \$0-frame-recall-r;
#X obj 200 454 r \$0-frame-store-s;
#X obj 239 522 xel.2d.mat.history \$0-frame;
#X msg 239 499 store \$1;
#X obj 162 355 hsl 265 15 0 20 0 0 \$0-frame-recall-s \$0-frame-recall-r
empty -2 -8 0 10 -262144 -1 -1 0 1;
#X obj 734 202 r \$0-update;
#X obj 734 224 bang;
#X obj 452 563 s \$0-update;
#X obj 200 476 t f b f;
#X obj 219 674 s \$0-update;
#X msg 140 402 set \$1;
#X obj 734 290 s \$0-frame-recall-r2;
#X obj 300 498 r \$0-frame-recall-s;
#X obj 6 467 s \$0-in;
#X obj 13 377 nbx 5 14 0 100 0 0 \$0-filling-factor-s \$0-filling-factor-r
empty 0 -8 0 10 -262144 -1 -1 100 256;
#X obj 14 290 vradio 15 1 0 4 \$0-filling-mode-s \$0-filling-mode-r
empty 0 -8 0 10 -262144 -1 -1 0;
#X text 33 288 fill;
#X text 33 303 replace;
#X text 33 319 add;
#X text 33 335 subtract;
#X obj 416 736 s \$0-in;
#X text 12 270 Filling Mode;
#N canvas 0 22 450 300 format 0;
#X msg 60 85 fill;
#X msg 95 84 replace;
#X msg 107 111 add;
#X obj 60 63 sel 0 1 2;
#X msg 141 120 subtract;
#X obj 59 43 inlet;
#X obj 78 173 outlet;
#X connect 0 0 6 0;
#X connect 1 0 6 0;
#X connect 2 0 6 0;
#X connect 3 0 0 0;
#X connect 3 1 1 0;
#X connect 3 2 2 0;
#X connect 3 3 4 0;
#X connect 4 0 6 0;
#X connect 5 0 3 0;
#X restore 485 668 pd format;
#X obj 416 692 list prepend;
#X obj 485 645 r \$0-filling-mode-s;
#X obj 17 632 loadbang;
#X obj 17 676 s \$0-filling-mode-r;
#X msg 17 654 0;
#X obj 473 600 r \$0-filling-factor-s;
#X obj 47 699 s \$0-filling-factor-r;
#N canvas 0 22 450 300 \$0-pattern-gui 0;
#X scalar 1078-stuct-matrix -1 1 1 -1 -0.5 0 999 0 0 0 \;;
#X coords -1 1 1 -1 90 90 2 100 100;
#X restore 651 448 pd \$0-pattern-gui;
#X obj 760 643 list prepend pattern;
#X obj 760 665 list trim;
#X obj 760 623 list split 1;
#X obj 760 385 text define -k \$0-pattern;
#A set matrix 3 3 0 0 0 0 0 0 0 0 0 \;;
#X obj 760 458 xel.2d.mat.history \$0-pattern;
#X obj 651 569 hradio 15 1 0 6 \$0-pattern-history-save-s \$0-pattern-history-save-r
empty 0 -8 0 10 -262144 -1 -262144 0;
#X msg 760 435 store \$1;
#X obj 840 362 declare -path ../;
#X text 650 360 Pattern Manager;
#X obj 713 430 nbx 2 14 1 25 0 0 \$0-ncols-s \$0-ncols-r empty 0 -8
0 10 -262144 -1 -1 1 256;
#X obj 683 430 nbx 2 14 1 25 0 0 \$0-nrows-s \$0-nrows-r empty 0 -8
0 10 -262144 -1 -1 1 256;
#X obj 651 402 hradio 15 1 0 6 \$0-pattern-history-recall-s \$0-pattern-history-recall-r
empty 0 -8 0 10 -262144 -1 -1 1;
#X obj 760 413 r \$0-pattern-history-save-s;
#X obj 820 435 r \$0-pattern-history-recall-s;
#X obj 964 379 loadbang;
#X obj 964 401 s \$0-pattern-history-recall-r;
#X obj 760 601 xel.2d.gui.mat \$0-pattern-gui 1 1;
#X msg 953 458 loadbang;
#X msg 953 480 matrix 1 1 1;
#X obj 985 546 r \$0-nrows-s;
#X obj 1066 546 r \$0-ncols-s;
#X obj 985 568 pack f f, f 14;
#X obj 985 590 list prepend matrix;
#X obj 985 612 list trim;
#X text 649 429 Size:;
#X obj 1047 429 loadbang;
#X obj 1047 471 s \$0-nrows-r;
#X msg 1047 451 1;
#X obj 1047 493 s \$0-ncols-r;
#X text 650 552 Store:;
#X text 650 383 Recall:;
#X obj 696 384 bng 15 250 50 0 \$0-load-s \$0-load-r empty 17 7 0 10
-262144 -1 -1;
#X obj 989 655 r \$0-load-s;
#X obj 989 677 openpanel;
#X msg 989 699 read \$1;
#X obj 989 721 s \$0-pattern;
#X obj 760 362 r \$0-pattern;
#X obj 1069 677 savepanel;
#X msg 1069 699 write \$1;
#X obj 696 552 bng 15 250 50 0 \$0-write-s \$0-write-r empty 17 7 0
10 -262144 -1 -1;
#X obj 1069 655 r \$0-write-s;
#X obj 760 686 outlet;
#N canvas 0 22 450 300 (subpatch) 0;
#X coords 0 -1 1 1 98 21 2 100 100;
#X restore 647 357 pd;
#N canvas 0 22 450 300 (subpatch) 0;
#X coords 0 -1 1 1 98 123 2 100 100;
#X restore 647 423 pd;
#X text 12 357 Opacity;
#X obj 473 622 / 100;
#X msg 47 654 100;
#X connect 2 0 8 0;
#X connect 3 0 38 0;
#X connect 4 0 35 0;
#X connect 7 0 28 0;
#X connect 8 0 9 0;
#X connect 9 0 17 0;
#X connect 9 1 3 0;
#X connect 12 1 22 0;
#X connect 13 0 14 0;
#X connect 14 0 26 0;
#X connect 16 0 23 0;
#X connect 17 0 8 0;
#X connect 18 0 17 0;
#X connect 19 0 25 0;
#X connect 20 0 21 0;
#X connect 21 0 13 0;
#X connect 23 0 15 0;
#X connect 23 1 24 0;
#X connect 23 2 18 0;
#X connect 25 0 10 0;
#X connect 27 0 17 0;
#X connect 37 0 38 1;
#X connect 38 0 4 0;
#X connect 39 0 37 0;
#X connect 40 0 42 0;
#X connect 40 0 92 0;
#X connect 42 0 41 0;
#X connect 43 0 91 0;
#X connect 46 0 47 0;
#X connect 47 0 87 0;
#X connect 48 1 46 0;
#X connect 50 0 62 0;
#X connect 52 0 50 0;
#X connect 58 0 52 0;
#X connect 59 0 50 0;
#X connect 60 0 61 0;
#X connect 62 0 50 0;
#X connect 62 0 48 0;
#X connect 63 0 64 0;
#X connect 64 0 62 0;
#X connect 65 0 67 0;
#X connect 66 0 67 1;
#X connect 67 0 68 0;
#X connect 68 0 69 0;
#X connect 69 0 62 0;
#X connect 71 0 73 0;
#X connect 73 0 72 0;
#X connect 73 0 74 0;
#X connect 78 0 79 0;
#X connect 79 0 80 0;
#X connect 80 0 81 0;
#X connect 82 0 49 0;
#X connect 83 0 84 0;
#X connect 84 0 81 0;
#X connect 86 0 83 0;
#X connect 91 0 3 2;
#X connect 92 0 44 0;
