#N canvas 612 138 278 121 10;
#X obj 22 6 inlet;
#N canvas 0 22 251 171 do.store 0;
#X obj 50 17 inlet;
#X obj 11 17 inlet;
#X obj 11 128 text set \$1, f 29;
#X obj 11 61 list, f 7;
#X obj 11 39 t b a, f 10;
#X obj 68 61 text search \$1;
#X obj 68 83 sel -1;
#X msg 68 105 1e+09;
#X connect 0 0 3 1;
#X connect 1 0 4 0;
#X connect 3 0 2 0;
#X connect 4 0 3 0;
#X connect 4 1 5 0;
#X connect 5 0 6 0;
#X connect 6 0 7 0;
#X connect 6 1 2 1;
#X connect 7 0 2 1;
#X restore 148 51 pd do.store;
#X obj 22 50 text search \$1;
#X obj 22 28 route symbol float store, f 32;
#X obj 22 72 text get \$1;
#X obj 22 94 outlet;
#X connect 0 0 3 0;
#X connect 2 0 4 0;
#X connect 3 0 2 0;
#X connect 3 1 2 0;
#X connect 3 2 1 0;
#X connect 3 3 1 1;
#X connect 4 0 5 0;
