#N canvas 612 138 428 329 10;
#X obj 22 6 inlet;
#X obj 22 28 route matrix store float, f 32;
#N canvas 0 22 298 443 do.store 0;
#X obj 32 17 inlet;
#X obj 71 17 inlet;
#X obj 11 398 text set \$1, f 42;
#X obj 11 79 list;
#X obj 11 101 list prepend matrix;
#X obj 71 39 t b f;
#X obj 152 167 text size \$1;
#X obj 125 145 t f b;
#X obj 125 219 -, f 5;
#X obj 125 241 moses 1;
#X obj 164 265 until;
#X obj 164 287 f, f 6;
#X obj 98 123 t f f;
#X obj 213 287 + 1;
#X obj 164 309 t b f;
#X obj 164 354 text get \$1;
#X obj 164 331 f, f 10;
#X obj 223 309 - 1;
#X obj 152 189 t f f, f 8;
#X obj 197 211 t f f;
#X connect 0 0 3 1;
#X connect 1 0 5 0;
#X connect 3 0 4 0;
#X connect 4 0 2 0;
#X connect 5 0 3 0;
#X connect 5 1 12 0;
#X connect 6 0 18 0;
#X connect 7 0 8 0;
#X connect 7 1 6 0;
#X connect 8 0 9 0;
#X connect 9 1 10 0;
#X connect 10 0 11 0;
#X connect 11 0 13 0;
#X connect 11 0 14 0;
#X connect 12 0 2 1;
#X connect 12 1 7 0;
#X connect 13 0 11 1;
#X connect 14 0 16 0;
#X connect 14 1 2 1;
#X connect 15 0 2 0;
#X connect 16 0 15 0;
#X connect 17 0 16 1;
#X connect 18 0 8 1;
#X connect 18 1 19 0;
#X connect 19 0 11 1;
#X connect 19 1 17 0;
#X restore 22 56 pd do.store;
#X obj 148 235 text get \$1;
#X obj 181 80 t f f;
#X obj 181 150 -, f 5;
#X obj 208 102 int;
#X obj 181 182 == 0;
#X obj 148 206 spigot;
#X obj 148 55 t f f, f 6;
#X obj 229 206 spigot;
#X obj 208 125 t f f;
#N canvas 0 22 401 606 do.interpolate 0;
#X obj 131 268 text get \$1;
#X obj 131 247 + 1;
#X obj 11 268 text get \$1;
#X msg 71 194 1 \$1;
#X obj 71 216 -;
#X obj 11 290 list split 3;
#X obj 131 290 list split 3;
#X obj 45 382 list split 1;
#X obj 126 382 list;
#X obj 165 382 list split 1;
#X obj 246 382 list;
#X obj 45 408 t b b f, f 8;
#X obj 90 430 *;
#X obj 165 430 *;
#X obj 90 452 +, f 13;
#X obj 170 474 list;
#X obj 71 70 t f f;
#X obj 71 150 -, f 11;
#X obj 98 92 int;
#X obj 98 115 t f f f;
#X obj 69 500 list;
#X obj 35 35 t b f b;
#X obj 90 474 list prepend;
#X obj 35 12 inlet;
#X obj 69 552 outlet;
#X obj 69 522 list prepend;
#X connect 0 0 6 0;
#X connect 1 0 0 0;
#X connect 2 0 5 0;
#X connect 3 0 4 0;
#X connect 4 0 12 1;
#X connect 5 0 25 1;
#X connect 5 1 7 0;
#X connect 6 1 9 0;
#X connect 7 0 11 0;
#X connect 7 1 8 1;
#X connect 8 0 7 0;
#X connect 9 0 13 0;
#X connect 9 1 10 1;
#X connect 10 0 9 0;
#X connect 11 0 8 0;
#X connect 11 1 10 0;
#X connect 11 2 12 0;
#X connect 12 0 14 0;
#X connect 13 0 14 1;
#X connect 14 0 22 0;
#X connect 15 0 22 1;
#X connect 16 0 17 0;
#X connect 16 1 18 0;
#X connect 17 0 3 0;
#X connect 17 0 13 1;
#X connect 18 0 19 0;
#X connect 19 0 2 0;
#X connect 19 1 1 0;
#X connect 19 2 17 1;
#X connect 20 0 25 0;
#X connect 21 0 20 0;
#X connect 21 1 16 0;
#X connect 21 2 22 1;
#X connect 22 0 15 0;
#X connect 22 0 20 1;
#X connect 23 0 21 0;
#X connect 25 0 24 0;
#X restore 229 235 pd do.interpolate;
#X obj 262 182 != 0;
#X obj 148 304 outlet;
#X obj 148 274 list trim;
#X connect 0 0 1 0;
#X connect 1 0 2 0;
#X connect 1 1 2 1;
#X connect 1 2 9 0;
#X connect 3 0 15 0;
#X connect 4 0 5 0;
#X connect 4 1 6 0;
#X connect 5 0 7 0;
#X connect 5 0 13 0;
#X connect 6 0 11 0;
#X connect 7 0 8 1;
#X connect 8 0 3 0;
#X connect 9 0 8 0;
#X connect 9 0 10 0;
#X connect 9 1 4 0;
#X connect 10 0 12 0;
#X connect 11 0 5 1;
#X connect 12 0 15 0;
#X connect 13 0 10 1;
#X connect 15 0 14 0;
