#N canvas 117 98 730 577 10;
#X obj 21 7 inlet;
#X obj 127 29 array define \$0-values;
#X obj 21 503 outlet;
#X obj 267 29 array define \$0-pattern;
#N canvas 0 22 275 140 out.mat 0;
#X obj 17 89 list trim;
#X obj 17 67 list prepend matrix \$1 \$2;
#X obj 164 26 r \$0-size;
#X msg 164 46 matrix \$1 \$2;
#X obj 17 47 array get \$0-values;
#X obj 17 21 inlet;
#X obj 17 111 outlet;
#X connect 0 0 6 0;
#X connect 1 0 0 0;
#X connect 2 0 3 0;
#X connect 3 0 1 1;
#X connect 4 0 1 0;
#X connect 5 0 4 0;
#X restore 21 480 pd out.mat;
#N canvas 83 327 349 373 set.ptrn 0;
#X obj 14 19 inlet;
#X obj 14 298 list split 2;
#X obj 48 321 route bang;
#X obj 41 116 unpack f f;
#X obj 41 188 *, f 10;
#X obj 41 210 t b f;
#X msg 41 254 const 0;
#X obj 14 82 t l l;
#X obj 71 81 print xel.2d.mat.brush;
#X obj 119 183 pack f f, f 12;
#X obj 41 138 t f f;
#X msg 71 61 pattern - invalid size;
#X obj 68 234 array size \$0-pattern;
#X obj 119 205 s \$0-ptrn-size;
#X obj 105 344 array set \$0-pattern;
#X obj 41 275 s \$0-ptrn-a;
#X obj 14 41 route list;
#X connect 0 0 16 0;
#X connect 1 1 2 0;
#X connect 2 1 14 0;
#X connect 3 0 10 0;
#X connect 3 1 4 1;
#X connect 3 1 9 1;
#X connect 4 0 5 0;
#X connect 5 0 6 0;
#X connect 5 1 12 0;
#X connect 6 0 15 0;
#X connect 7 0 1 0;
#X connect 7 1 3 0;
#X connect 9 0 13 0;
#X connect 10 0 9 0;
#X connect 10 1 4 0;
#X connect 11 0 8 0;
#X connect 16 0 7 0;
#X connect 16 1 11 0;
#X restore 126 356 pd set.ptrn;
#X obj 267 6 r \$0-ptrn-a;
#X obj 127 5 r \$0-values-a;
#X obj 444 177 print xel.2d.mat.brush;
#X obj 444 151 list append - invalid message;
#X obj 126 334 xel.2d.mat.check;
#X obj 135 290 loadbang;
#X msg 135 312 1 1 1;
#X obj 21 451 r \$0-out;
#X obj 179 270 s \$0-out;
#X obj 249 457 r \$0-fill;
#N canvas 659 23 451 802 fill.pattern 1;
#X obj 7 11 inlet;
#X obj 7 668 array set \$0-values;
#X obj 62 353 xel.2d.get.rctoi \$1 \$2;
#X obj 191 305 r \$0-size;
#X obj 62 331 xel.2d.get.valid \$1 \$2;
#X obj 62 309 pack f f, f 11;
#X obj 7 33 t b l, f 12;
#X obj 7 125 array size \$0-pattern;
#X obj 7 147 t f b, f 7;
#X obj 7 169 until;
#X obj 46 169 f 0;
#X obj 77 93 unpack f f f, f 21;
#X obj 7 191 f, f 7;
#X obj 56 191 + 1;
#X obj 7 213 t f f, f 9;
#X obj 155 220 r \$0-ptrn-size;
#X obj 62 265 unpack f f, f 11;
#X obj 62 287 +;
#X obj 125 287 +;
#X obj 62 243 xel.2d.get.itorc 1 1;
#X obj 7 406 array get \$0-pattern 0 1;
#X obj 7 529 pack f f;
#X obj 7 551 route 0 1 2 3;
#X obj 7 574 sel 0;
#X obj 7 428 t b f, f 8;
#X obj 112 544 array get \$0-values 0 1;
#X obj 22 483 inlet;
#X obj 44 590 +;
#X obj 72 622 -;
#X obj 52 458 *, f 32;
#X obj 62 375 t f f;
#X obj 7 505 f;
#X obj 76 65 list append 1;
#X obj 74 600 f;
#X obj 84 577 t b f;
#X connect 0 0 6 0;
#X connect 2 0 30 0;
#X connect 3 0 2 1;
#X connect 3 0 4 1;
#X connect 4 0 2 0;
#X connect 5 0 4 0;
#X connect 6 0 7 0;
#X connect 6 1 32 0;
#X connect 7 0 8 0;
#X connect 8 0 9 0;
#X connect 8 1 10 0;
#X connect 9 0 12 0;
#X connect 10 0 12 1;
#X connect 11 0 17 1;
#X connect 11 1 18 1;
#X connect 11 2 29 1;
#X connect 12 0 13 0;
#X connect 12 0 14 0;
#X connect 13 0 12 1;
#X connect 14 0 20 0;
#X connect 14 1 19 0;
#X connect 15 0 19 1;
#X connect 16 0 17 0;
#X connect 16 1 18 0;
#X connect 17 0 5 0;
#X connect 18 0 5 1;
#X connect 19 0 16 0;
#X connect 20 0 24 0;
#X connect 21 0 22 0;
#X connect 22 0 23 0;
#X connect 22 1 1 0;
#X connect 22 2 27 0;
#X connect 22 3 34 0;
#X connect 23 1 1 0;
#X connect 24 0 31 0;
#X connect 24 1 29 0;
#X connect 25 0 27 1;
#X connect 25 0 33 1;
#X connect 26 0 31 1;
#X connect 27 0 1 0;
#X connect 28 0 1 0;
#X connect 29 0 21 1;
#X connect 30 0 1 1;
#X connect 30 1 25 0;
#X connect 31 0 21 0;
#X connect 32 0 11 0;
#X connect 33 0 28 0;
#X connect 34 0 33 0;
#X connect 34 1 28 1;
#X restore 249 485 pd fill.pattern;
#X obj 198 249 s \$0-fill;
#X obj 113 464 loadbang;
#N canvas 83 327 349 373 set.mtx 0;
#X obj 14 19 inlet;
#X obj 14 298 list split 2;
#X obj 105 344 array set \$0-values;
#X obj 48 321 route bang;
#X obj 41 116 unpack f f;
#X obj 41 188 *, f 10;
#X obj 41 210 t b f;
#X obj 68 234 array size \$0-values;
#X msg 41 254 const 0;
#X obj 14 82 t l l;
#X obj 83 81 print xel.2d.mat.brush;
#X msg 83 61 matrix - invalid size;
#X obj 119 183 pack f f, f 12;
#X obj 119 205 s \$0-size;
#X obj 41 138 t f f;
#X obj 41 275 s \$0-values-a;
#X obj 14 41 route list;
#X connect 0 0 16 0;
#X connect 1 1 3 0;
#X connect 3 1 2 0;
#X connect 4 0 14 0;
#X connect 4 1 5 1;
#X connect 4 1 12 1;
#X connect 5 0 6 0;
#X connect 6 0 8 0;
#X connect 6 1 7 0;
#X connect 8 0 15 0;
#X connect 9 0 1 0;
#X connect 9 1 4 0;
#X connect 11 0 10 0;
#X connect 12 0 13 0;
#X connect 14 0 12 0;
#X connect 14 1 5 0;
#X connect 16 0 9 0;
#X connect 16 1 11 0;
#X restore 103 507 pd set.mtx;
#X obj 103 485 xel.2d.mat.check \$1 \$2;
#X obj 103 441 r \$0-matrix;
#X obj 391 294 s \$0-matrix;
#X obj 21 143 s \$0-out;
#X obj 74 361 t b l;
#X obj 74 403 s \$0-out;
#X obj 101 383 s \$0-matrix;
#X obj 232 165 s \$0-out;
#X obj 251 144 s \$0-fill;
#X obj 179 185 t b l b;
#X obj 336 456 r \$0-mode;
#X obj 218 228 s \$0-mode;
#X obj 232 80 t b l b;
#X obj 271 122 s \$0-mode;
#X obj 285 270 s \$0-out;
#X obj 304 249 s \$0-fill;
#X obj 338 165 s \$0-out;
#X obj 357 144 s \$0-fill;
#X obj 285 185 t b l b;
#X obj 324 228 s \$0-mode;
#X obj 338 80 t b l b;
#X obj 377 122 s \$0-mode;
#X msg 218 208 0;
#X msg 324 208 2;
#X msg 271 101 1;
#X msg 377 101 3;
#X obj 391 200 route matrix fill replace add subtract;
#X obj 500 294 s \$0-fill;
#X obj 481 230 t b l b;
#X obj 520 272 s \$0-mode;
#X obj 545 389 s \$0-fill;
#X obj 590 294 s \$0-fill;
#X obj 526 325 t b l b;
#X obj 565 368 s \$0-mode;
#X obj 571 230 t b l b;
#X obj 610 272 s \$0-mode;
#X msg 565 348 2;
#X msg 520 251 1;
#X msg 610 251 3;
#X obj 455 395 s \$0-fill;
#X obj 436 331 t b l b;
#X obj 475 374 s \$0-mode;
#X msg 475 354 0;
#X obj 21 59 route bang matrix pattern fill replace add subtract set
, f 71;
#X connect 0 0 63 0;
#X connect 4 0 2 0;
#X connect 6 0 3 0;
#X connect 7 0 1 0;
#X connect 9 0 8 0;
#X connect 10 0 5 0;
#X connect 11 0 12 0;
#X connect 12 0 10 0;
#X connect 13 0 4 0;
#X connect 15 0 16 0;
#X connect 18 0 20 0;
#X connect 20 0 19 0;
#X connect 21 0 20 0;
#X connect 24 0 25 0;
#X connect 24 1 26 0;
#X connect 29 0 14 0;
#X connect 29 1 17 0;
#X connect 29 2 42 0;
#X connect 30 0 16 1;
#X connect 32 0 27 0;
#X connect 32 1 28 0;
#X connect 32 2 44 0;
#X connect 38 0 34 0;
#X connect 38 1 35 0;
#X connect 38 2 43 0;
#X connect 40 0 36 0;
#X connect 40 1 37 0;
#X connect 40 2 45 0;
#X connect 42 0 31 0;
#X connect 43 0 39 0;
#X connect 44 0 33 0;
#X connect 45 0 41 0;
#X connect 46 0 22 0;
#X connect 46 1 60 0;
#X connect 46 2 48 0;
#X connect 46 3 52 0;
#X connect 46 4 54 0;
#X connect 46 5 9 0;
#X connect 48 1 47 0;
#X connect 48 2 57 0;
#X connect 52 1 50 0;
#X connect 52 2 56 0;
#X connect 54 1 51 0;
#X connect 54 2 58 0;
#X connect 56 0 53 0;
#X connect 57 0 49 0;
#X connect 58 0 55 0;
#X connect 60 1 59 0;
#X connect 60 2 62 0;
#X connect 62 0 61 0;
#X connect 63 0 23 0;
#X connect 63 1 24 0;
#X connect 63 2 10 0;
#X connect 63 3 29 0;
#X connect 63 4 32 0;
#X connect 63 5 38 0;
#X connect 63 6 40 0;
#X connect 63 7 46 0;
#X connect 63 8 9 0;
