#N struct 1049-stuct-matrix float x1 float y1 float x2 float y2 float
xv float yv float c1 float c2 float val float index;
#N canvas 189 73 544 430 10;
#X obj 6 7 xel.header xel.2d.mat.random;
#X obj 6 384 xel.footer;
#X obj 243 118 bng 15 250 50 0 empty empty empty 17 7 0 10 -262144
-1 -1;
#X obj 243 94 loadbang;
#X obj 243 142 xel.2d.mat.random 5 5;
#N canvas 0 22 1029 742 \$0-canvas 0;
#X scalar 1049-stuct-matrix -1 1 -0.6 0.6 -0.9 0.8 999 0 0 0 \;;
#X scalar 1049-stuct-matrix -0.6 1 -0.2 0.6 -0.5 0.8 999 0 5 1 \;;
#X scalar 1049-stuct-matrix -0.2 1 0.2 0.6 -0.1 0.8 999 0 6 2 \;;
#X scalar 1049-stuct-matrix 0.2 1 0.6 0.6 0.3 0.8 999 0 0 3 \;;
#X scalar 1049-stuct-matrix 0.6 1 1 0.6 0.7 0.8 999 0 1 4 \;;
#X scalar 1049-stuct-matrix -1 0.6 -0.6 0.2 -0.9 0.4 999 0 -2 5 \;
;
#X scalar 1049-stuct-matrix -0.6 0.6 -0.2 0.2 -0.5 0.4 999 0 0 6 \;
;
#X scalar 1049-stuct-matrix -0.2 0.6 0.2 0.2 -0.1 0.4 999 0 2 7 \;
;
#X scalar 1049-stuct-matrix 0.2 0.6 0.6 0.2 0.3 0.4 999 0 6 8 \;;
#X scalar 1049-stuct-matrix 0.6 0.6 1 0.2 0.7 0.4 999 0 3 9 \;;
#X scalar 1049-stuct-matrix -1 0.2 -0.6 -0.2 -0.9 -1.49012e-08 999
0 0 10 \;;
#X scalar 1049-stuct-matrix -0.6 0.2 -0.2 -0.2 -0.5 -1.49012e-08 999
0 -4 11 \;;
#X scalar 1049-stuct-matrix -0.2 0.2 0.2 -0.2 -0.1 -1.49012e-08 999
0 3 12 \;;
#X scalar 1049-stuct-matrix 0.2 0.2 0.6 -0.2 0.3 -1.49012e-08 999 0
-7 13 \;;
#X scalar 1049-stuct-matrix 0.6 0.2 1 -0.2 0.7 -1.49012e-08 999 0 -6
14 \;;
#X scalar 1049-stuct-matrix -1 -0.2 -0.6 -0.6 -0.9 -0.4 999 0 3 15
\;;
#X scalar 1049-stuct-matrix -0.6 -0.2 -0.2 -0.6 -0.5 -0.4 999 0 -7
16 \;;
#X scalar 1049-stuct-matrix -0.2 -0.2 0.2 -0.6 -0.1 -0.4 999 0 7 17
\;;
#X scalar 1049-stuct-matrix 0.2 -0.2 0.6 -0.6 0.3 -0.4 999 0 -7 18
\;;
#X scalar 1049-stuct-matrix 0.6 -0.2 1 -0.6 0.7 -0.4 999 0 -7 19 \;
;
#X scalar 1049-stuct-matrix -1 -0.6 -0.6 -1 -0.9 -0.8 999 0 0 20 \;
;
#X scalar 1049-stuct-matrix -0.6 -0.6 -0.2 -1 -0.5 -0.8 999 0 3 21
\;;
#X scalar 1049-stuct-matrix -0.2 -0.6 0.2 -1 -0.1 -0.8 999 0 -3 22
\;;
#X scalar 1049-stuct-matrix 0.2 -0.6 0.6 -1 0.3 -0.8 999 0 -5 23 \;
;
#X scalar 1049-stuct-matrix 0.6 -0.6 1 -1 0.7 -0.8 999 0 2 24 \;;
#X coords -1 1 1 -1 201 201 2 100 100;
#X restore 7 88 pd \$0-canvas;
#X obj 243 186 list prepend set;
#X obj 243 208 list trim;
#X msg 243 230 matrix 5 5 -0.00985889 0.051194 0.0659294 0.0089947
0.0105401 -0.0210939 0.00224204 0.0222245 0.0667395 0.0317979 0.00128745
-0.0443566 0.036998 -0.0763708 -0.0672002 0.0386155 -0.0789084 0.0706614
-0.0740243 -0.0708095 -0.00310003 0.0382237 -0.0306906 -0.0555763 0.0225626
, f 38;
#X obj 243 164 xel.2d.gui.mat \$0-canvas 5 5;
#X msg 316 118 matrix \$1 \$1;
#X obj 316 94 nbx 5 14 0 10 0 0 empty empty empty 0 -8 0 10 -262144
-1 -1 5 256;
#X text 4 31 The abstraction generates a matrix filled with random
values. The sum of the absolutes values of the elements equals one.
The matrix can be used for kernel filter., f 66;
#X connect 2 0 4 0;
#X connect 3 0 2 0;
#X connect 4 0 9 0;
#X connect 6 0 7 0;
#X connect 7 0 8 0;
#X connect 9 0 6 0;
#X connect 10 0 4 0;
#X connect 11 0 10 0;
