#N canvas 612 138 413 180 10;
#X obj 22 6 inlet;
#N canvas 201 153 259 207 do.store 0;
#X obj 50 17 inlet;
#X obj 11 17 inlet;
#X obj 11 172 text set \$1, f 29;
#X obj 11 61 list, f 7;
#X obj 11 39 t b a, f 10;
#X obj 68 127 sel -1;
#X msg 68 149 1e+09;
#X obj 68 61 route float;
#X obj 131 83 symbol;
#X obj 68 105 text search \$1 0;
#X obj 11 83 list prepend;
#X connect 0 0 3 1;
#X connect 1 0 4 0;
#X connect 3 0 10 0;
#X connect 4 0 3 0;
#X connect 4 1 7 0;
#X connect 4 1 10 1;
#X connect 5 0 6 0;
#X connect 5 1 2 1;
#X connect 6 0 2 1;
#X connect 7 0 9 0;
#X connect 7 1 8 0;
#X connect 8 0 9 0;
#X connect 9 0 5 0;
#X connect 10 0 2 0;
#X restore 163 51 pd do.store;
#X obj 22 50 text search \$1;
#X obj 22 72 text get \$1;
#X obj 56 139 outlet;
#X obj 22 94 list split 1;
#X obj 56 116 list trim;
#X obj 22 28 route symbol float delete store, f 32;
#X obj 132 100 text search \$1;
#X obj 132 122 moses 0;
#X obj 132 78 symbol;
#X obj 171 145 text delete \$1;
#X connect 0 0 7 0;
#X connect 2 0 3 0;
#X connect 3 0 5 0;
#X connect 5 1 6 0;
#X connect 6 0 4 0;
#X connect 7 0 2 0;
#X connect 7 1 2 0;
#X connect 7 2 10 0;
#X connect 7 3 1 0;
#X connect 7 4 1 1;
#X connect 8 0 9 0;
#X connect 9 1 11 0;
#X connect 10 0 8 0;
