#N struct 1094-stuct-matrix float x1 float y1 float x2 float y2 float
xv float yv float c1 float c2 float val float index;
#N canvas 653 309 528 455 10;
#X obj 6 7 xel.header xel.2d.mat.fltr.log;
#X obj 6 364 xel.footer;
#X obj 223 108 bng 15 250 50 0 empty empty empty 17 7 0 10 -262144
-1 -1;
#X text 241 109 Outputs;
#X obj 223 84 loadbang;
#N canvas 0 22 1029 742 \$0-canvas 0;
#X scalar 1094-stuct-matrix -1 1 -0.6 0.6 -0.9 0.8 999 0 -4 0 \;;
#X scalar 1094-stuct-matrix -0.6 1 -0.2 0.6 -0.5 0.8 999 0 -3 1 \;
;
#X scalar 1094-stuct-matrix -0.2 1 0.2 0.6 -0.1 0.8 999 0 -7 2 \;;
#X scalar 1094-stuct-matrix 0.2 1 0.6 0.6 0.3 0.8 999 0 -3 3 \;;
#X scalar 1094-stuct-matrix 0.6 1 1 0.6 0.7 0.8 999 0 -4 4 \;;
#X scalar 1094-stuct-matrix -1 0.6 -0.6 0.2 -0.9 0.4 999 0 -3 5 \;
;
#X scalar 1094-stuct-matrix -0.6 0.6 -0.2 0.2 -0.5 0.4 999 0 0 6 \;
;
#X scalar 1094-stuct-matrix -0.2 0.6 0.2 0.2 -0.1 0.4 999 0 8 7 \;
;
#X scalar 1094-stuct-matrix 0.2 0.6 0.6 0.2 0.3 0.4 999 0 0 8 \;;
#X scalar 1094-stuct-matrix 0.6 0.6 1 0.2 0.7 0.4 999 0 -3 9 \;;
#X scalar 1094-stuct-matrix -1 0.2 -0.6 -0.2 -0.9 -1.49012e-08 999
0 -3 10 \;;
#X scalar 1094-stuct-matrix -0.6 0.2 -0.2 -0.2 -0.5 -1.49012e-08 999
0 3 11 \;;
#X scalar 1094-stuct-matrix -0.2 0.2 0.2 -0.2 -0.1 -1.49012e-08 999
0 17 12 \;;
#X scalar 1094-stuct-matrix 0.2 0.2 0.6 -0.2 0.3 -1.49012e-08 999 0
8 13 \;;
#X scalar 1094-stuct-matrix 0.6 0.2 1 -0.2 0.7 -1.49012e-08 999 0 -7
14 \;;
#X scalar 1094-stuct-matrix -1 -0.2 -0.6 -0.6 -0.9 -0.4 999 0 -3 15
\;;
#X scalar 1094-stuct-matrix -0.6 -0.2 -0.2 -0.6 -0.5 -0.4 999 0 0 16
\;;
#X scalar 1094-stuct-matrix -0.2 -0.2 0.2 -0.6 -0.1 -0.4 999 0 8 17
\;;
#X scalar 1094-stuct-matrix 0.2 -0.2 0.6 -0.6 0.3 -0.4 999 0 0 18 \;
;
#X scalar 1094-stuct-matrix 0.6 -0.2 1 -0.6 0.7 -0.4 999 0 -3 19 \;
;
#X scalar 1094-stuct-matrix -1 -0.6 -0.6 -1 -0.9 -0.8 999 0 -4 20 \;
;
#X scalar 1094-stuct-matrix -0.6 -0.6 -0.2 -1 -0.5 -0.8 999 0 -3 21
\;;
#X scalar 1094-stuct-matrix -0.2 -0.6 0.2 -1 -0.1 -0.8 999 0 -7 22
\;;
#X scalar 1094-stuct-matrix 0.2 -0.6 0.6 -1 0.3 -0.8 999 0 -3 23 \;
;
#X scalar 1094-stuct-matrix 0.6 -0.6 1 -1 0.7 -0.8 999 0 -4 24 \;;
#X coords -1 1 1 -1 201 201 2 100 100;
#X restore 7 88 pd \$0-canvas;
#X obj 223 196 list prepend set;
#X obj 223 218 list trim;
#X msg 223 240 matrix 5 5 -0.0487189 -0.0349197 -0.0719973 -0.0349197
-0.0487189 -0.0349197 -0 0.0806673 -0 -0.0349197 -0.0328988 0.0368605
0.177331 0.0806673 -0.0719973 -0.0349197 -0 0.0806673 -0 -0.0349197
-0.0487189 -0.0349197 -0.0719973 -0.0349197 -0.0487189, f 38;
#X obj 223 164 xel.2d.gui.mat \$0-canvas 5 5;
#X msg 404 109 deviation \$1;
#X obj 404 90 nbx 5 14 0.001 2 0 0 empty empty empty 0 -8 0 10 -262144
-1 -1 0.001 256;
#X obj 223 142 xel.2d.mat.fltr.log 5 5;
#X msg 303 109 matrix \$1 \$1;
#X obj 303 90 nbx 5 14 0 10 0 0 empty empty empty 0 -8 0 10 -262144
-1 -1 0 256;
#X text 4 31 The abstraction generates a matrix filled with values
generated with the laplacian of gaussian. The matrix can be used for
kernel filter., f 67;
#X connect 2 0 12 0;
#X connect 4 0 2 0;
#X connect 6 0 7 0;
#X connect 7 0 8 0;
#X connect 9 0 6 0;
#X connect 10 0 12 0;
#X connect 11 0 10 0;
#X connect 12 0 9 0;
#X connect 13 0 12 0;
#X connect 14 0 13 0;
