#N struct 1818-t-scope float x array cells 1818-t-scope-value;
#N struct 1818-t-scope-value float x1 float y1 float x2 float y2 float
c1 float c2;
#N canvas 602 204 528 495 10;
#X declare -stdpath spam;
#N canvas 0 22 450 300 \$0-scope 0;
#X scalar 1818-t-scope 0 \; -1 1 -0.75 0.75 900 0 \; -0.75 1 -0.5 0.75
900 0 \; -0.5 1 -0.25 0.75 900 0 \; -0.25 1 0 0.75 900 0 \; 0 1 0.25
0.75 900 0 \; 0.25 1 0.5 0.75 90 0 \; 0.5 1 0.75 0.75 999 0 \; 0.75
1 1 0.75 999 0 \; -1 0.75 -0.75 0.5 900 0 \; -0.75 0.75 -0.5 0.5 900
0 \; -0.5 0.75 -0.25 0.5 900 0 \; -0.25 0.75 0 0.5 900 0 \; 0 0.75
0.25 0.5 900 0 \; 0.25 0.75 0.5 0.5 90 0 \; 0.5 0.75 0.75 0.5 999 0
\; 0.75 0.75 1 0.5 999 0 \; -1 0.5 -0.75 0.25 900 0 \; -0.75 0.5 -0.5
0.25 900 0 \; -0.5 0.5 -0.25 0.25 900 0 \; -0.25 0.5 0 0.25 900 0 \;
0 0.5 0.25 0.25 950 0 \; 0.25 0.5 0.5 0.25 90 0 \; 0.5 0.5 0.75 0.25
999 0 \; 0.75 0.5 1 0.25 999 0 \; -1 0.25 -0.75 -0 90 0 \; -0.75 0.25
-0.5 -0 950 0 \; -0.5 0.25 -0.25 -0 950 0 \; -0.25 0.25 0 -0 990 0
\; 0 0.25 0.25 -0 90 0 \; 0.25 0.25 0.5 -0 999 0 \; 0.5 0.25 0.75 -0
999 0 \; 0.75 0.25 1 -0 999 0 \; -1 -0 -0.75 -0.25 999 0 \; -0.75 -0
-0.5 -0.25 999 0 \; -0.5 -0 -0.25 -0.25 999 0 \; -0.25 -0 0 -0.25 999
0 \; 0 -0 0.25 -0.25 999 0 \; 0.25 -0 0.5 -0.25 999 0 \; 0.5 -0 0.75
-0.25 999 0 \; 0.75 -0 1 -0.25 999 0 \; -1 -0.25 -0.75 -0.5 999 0 \;
-0.75 -0.25 -0.5 -0.5 999 0 \; -0.5 -0.25 -0.25 -0.5 999 0 \; -0.25
-0.25 0 -0.5 999 0 \; 0 -0.25 0.25 -0.5 999 0 \; 0.25 -0.25 0.5 -0.5
999 0 \; 0.5 -0.25 0.75 -0.5 999 0 \; 0.75 -0.25 1 -0.5 999 0 \; -1
-0.5 -0.75 -0.75 999 0 \; -0.75 -0.5 -0.5 -0.75 999 0 \; -0.5 -0.5
-0.25 -0.75 999 0 \; -0.25 -0.5 0 -0.75 999 0 \; 0 -0.5 0.25 -0.75
999 0 \; 0.25 -0.5 0.5 -0.75 999 0 \; 0.5 -0.5 0.75 -0.75 999 0 \;
0.75 -0.5 1 -0.75 999 0 \; -1 -0.75 -0.75 -1 999 0 \; -0.75 -0.75 -0.5
-1 999 0 \; -0.5 -0.75 -0.25 -1 999 0 \; -0.25 -0.75 0 -1 999 0 \;
0 -0.75 0.25 -1 999 0 \; 0.25 -0.75 0.5 -1 999 0 \; 0.5 -0.75 0.75
-1 999 0 \; 0.75 -0.75 1 -1 999 0 \; \;;
#X coords -1 1 1 -1 200 200 2 100 100;
#X restore 17 126 pd \$0-scope;
#X obj 284 175 tgl 15 0 empty empty empty 17 7 0 10 -262144 -1 -1 1
1;
#N canvas 0 22 573 343 trajectory 0;
#X obj 54 191 t f f, f 15;
#X obj 54 279 pack f f, f 15;
#X obj 54 237 * 6.28319;
#X obj 141 237 * 6.28319;
#X obj 54 128 line 0;
#X obj 54 257 sin;
#X obj 141 257 sin;
#X obj 54 215 * 3;
#X obj 141 215 * 1;
#X msg 54 104 \$1 \, 1 10000;
#X obj 54 80 f 0;
#X obj 144 96 sel 1;
#X obj 54 301 outlet;
#X msg 17 104 stop;
#X obj 17 53 sel 0 1, f 13;
#X obj 144 118 f 0;
#X obj 17 25 inlet;
#X connect 0 0 7 0;
#X connect 0 1 8 0;
#X connect 1 0 12 0;
#X connect 2 0 5 0;
#X connect 3 0 6 0;
#X connect 4 0 0 0;
#X connect 4 0 11 0;
#X connect 5 0 1 0;
#X connect 6 0 1 1;
#X connect 7 0 2 0;
#X connect 8 0 3 0;
#X connect 9 0 4 0;
#X connect 10 0 9 0;
#X connect 11 0 15 0;
#X connect 11 1 10 1;
#X connect 13 0 4 0;
#X connect 14 0 13 0;
#X connect 14 1 10 0;
#X connect 15 0 10 0;
#X connect 16 0 14 0;
#X restore 284 194 pd trajectory;
#X obj 284 154 loadbang;
#X obj 306 309 nbx 5 14 -1e+37 1e+37 0 0 empty empty empty 0 -8 0 10
-262144 -1 -1 3.17258 256;
#X obj 306 267 tgl 15 0 empty empty empty 17 7 0 10 -262144 -1 -1 1
1;
#X obj 306 244 loadbang;
#N canvas 0 22 240 385 blurry 0;
#X obj 54 187 * 6.28319;
#X obj 54 128 line 0;
#X obj 54 207 sin;
#X obj 54 80 f 0;
#X obj 144 96 sel 1;
#X obj 54 321 outlet;
#X msg 17 104 stop;
#X obj 17 53 sel 0 1, f 13;
#X obj 144 118 f 0;
#X obj 17 25 inlet;
#X obj 54 229 t f f;
#X obj 54 251 *, f 5;
#X obj 54 273 * 3;
#X obj 54 295 + 1;
#X msg 54 104 \$1 \, 1 50000;
#X connect 0 0 2 0;
#X connect 1 0 4 0;
#X connect 1 0 0 0;
#X connect 2 0 10 0;
#X connect 3 0 14 0;
#X connect 4 0 8 0;
#X connect 4 1 3 1;
#X connect 6 0 1 0;
#X connect 7 0 6 0;
#X connect 7 1 3 0;
#X connect 8 0 3 0;
#X connect 9 0 7 0;
#X connect 10 0 11 0;
#X connect 10 1 11 1;
#X connect 11 0 12 0;
#X connect 12 0 13 0;
#X connect 13 0 5 0;
#X connect 14 0 1 0;
#X restore 306 287 pd blurry;
#X obj 301 396 declare -stdpath spam;
#X obj 5 7 xel.header xel.2d.gui.scope~;
#X obj 6 444 xel.footer;
#X msg 306 328 size \$1;
#X obj 301 419 text define -k \$0-scope-attr;
#A set colors 999 90 990 950 900 \; gain 0 \;;
#X obj 20 371 spam~ 64 xel.2d.syn.brush~ 8 8, f 38;
#N canvas 217 367 450 300 pos 0;
#X obj 145 100 nbx 4 14 -1e+37 1e+37 0 0 empty empty empty 0 -8 0 10
-262144 -1 -1 0.929776 256;
#X obj 100 100 nbx 4 14 -1e+37 1e+37 0 0 empty empty empty 0 -8 0 10
-262144 -1 -1 -0.425775 256;
#X obj 119 77 t b f;
#X obj 101 150 pack 1 f;
#X obj 101 18 r \$0-pos;
#X obj 101 40 unpack f f;
#X obj 101 172 outlet;
#X obj 164 19 inlet;
#X connect 0 0 2 0;
#X connect 1 0 3 0;
#X connect 2 0 1 0;
#X connect 2 1 3 1;
#X connect 3 0 6 0;
#X connect 4 0 5 0;
#X connect 5 0 1 0;
#X connect 5 1 0 0;
#X connect 7 0 5 0;
#X coords 0 -1 1 1 90 14 2 100 100;
#X restore 284 218 pd pos;
#X obj 20 341 sig~ 1;
#X obj 20 407 spam~ 64 xel.2d.gui.scope~ 8 8 \$0-scope \$0-scope-attr
, f 38;
#X text 4 31 The abstraction displays the rms amplitude of the signals
of the soxels inside a canvas. The two first arguments are the dimension
of the matrix \, the number of rows and the number of columns. The
third argument is the canvas to paint. The last argument can be the
name of a text object to define the colors or the gain., f 72;
#X connect 1 0 2 0;
#X connect 2 0 14 0;
#X connect 3 0 1 0;
#X connect 4 0 11 0;
#X connect 5 0 7 0;
#X connect 6 0 5 0;
#X connect 7 0 4 0;
#X connect 11 0 13 1;
#X connect 13 0 16 0;
#X connect 13 1 16 1;
#X connect 13 2 16 2;
#X connect 13 3 16 3;
#X connect 13 4 16 4;
#X connect 13 5 16 5;
#X connect 13 6 16 6;
#X connect 13 7 16 7;
#X connect 13 8 16 8;
#X connect 13 9 16 9;
#X connect 13 10 16 10;
#X connect 13 11 16 11;
#X connect 13 12 16 12;
#X connect 13 13 16 13;
#X connect 13 14 16 14;
#X connect 13 15 16 15;
#X connect 13 16 16 16;
#X connect 13 17 16 17;
#X connect 13 18 16 18;
#X connect 13 19 16 19;
#X connect 13 20 16 20;
#X connect 13 21 16 21;
#X connect 13 22 16 22;
#X connect 13 23 16 23;
#X connect 13 24 16 24;
#X connect 13 25 16 25;
#X connect 13 26 16 26;
#X connect 13 27 16 27;
#X connect 13 28 16 28;
#X connect 13 29 16 29;
#X connect 13 30 16 30;
#X connect 13 31 16 31;
#X connect 13 32 16 32;
#X connect 13 33 16 33;
#X connect 13 34 16 34;
#X connect 13 35 16 35;
#X connect 13 36 16 36;
#X connect 13 37 16 37;
#X connect 13 38 16 38;
#X connect 13 39 16 39;
#X connect 13 40 16 40;
#X connect 13 41 16 41;
#X connect 13 42 16 42;
#X connect 13 43 16 43;
#X connect 13 44 16 44;
#X connect 13 45 16 45;
#X connect 13 46 16 46;
#X connect 13 47 16 47;
#X connect 13 48 16 48;
#X connect 13 49 16 49;
#X connect 13 50 16 50;
#X connect 13 51 16 51;
#X connect 13 52 16 52;
#X connect 13 53 16 53;
#X connect 13 54 16 54;
#X connect 13 55 16 55;
#X connect 13 56 16 56;
#X connect 13 57 16 57;
#X connect 13 58 16 58;
#X connect 13 59 16 59;
#X connect 13 60 16 60;
#X connect 13 61 16 61;
#X connect 13 62 16 62;
#X connect 13 63 16 63;
#X connect 14 0 13 1;
#X connect 15 0 13 0;
