#N struct 10086-t-scope float x array cells 10086-t-scope-value;
#N struct 10086-t-scope-value float x1 float y1 float x2 float y2 float
c1 float c2;
#N struct 10112-t-scope float x array cells 10112-t-scope-value;
#N struct 10112-t-scope-value float x1 float y1 float x2 float y2 float
c1 float c2;
#N struct 10137-stuct-matrix float x1 float y1 float x2 float y2 float
xv float yv float c1 float c2 float val float index;
#N struct 10141-t-meter float x array ls 10141-t-meter-value;
#N struct 10141-t-meter-value float x1 float y1 float s1 float s2 float
s3 float s4 float c0 float c1 float c2 float c3 float c4 float v1 float
v2 float v3 float v4;
#N canvas 191 23 778 777 10;
#X declare -stdpath spam;
#N canvas 0 22 223 200 \$0-scope 0;
#X scalar 10086-t-scope 0 \; -1 1 -0.6 0.6 999 0 \; -0.6 1 -0.2 0.6
999 0 \; -0.2 1 0.2 0.6 999 0 \; 0.2 1 0.6 0.6 999 0 \; 0.6 1 1 0.6
999 0 \; -1 0.6 -0.6 0.2 999 0 \; -0.6 0.6 -0.2 0.2 999 0 \; -0.2 0.6
0.2 0.2 999 0 \; 0.2 0.6 0.6 0.2 999 0 \; 0.6 0.6 1 0.2 999 0 \; -1
0.2 -0.6 -0.2 999 0 \; -0.6 0.2 -0.2 -0.2 999 0 \; -0.2 0.2 0.2 -0.2
90 0 \; 0.2 0.2 0.6 -0.2 999 0 \; 0.6 0.2 1 -0.2 999 0 \; -1 -0.2 -0.6
-0.6 999 0 \; -0.6 -0.2 -0.2 -0.6 999 0 \; -0.2 -0.2 0.2 -0.6 999 0
\; 0.2 -0.2 0.6 -0.6 999 0 \; 0.6 -0.2 1 -0.6 999 0 \; -1 -0.6 -0.6
-1 999 0 \; -0.6 -0.6 -0.2 -1 999 0 \; -0.2 -0.6 0.2 -1 999 0 \; 0.2
-0.6 0.6 -1 999 0 \; 0.6 -0.6 1 -1 999 0 \; \;;
#X coords -1 1 1 -1 171 171 2 100 100;
#X restore 584 57 pd \$0-scope;
#X obj 340 694 text define -k \$0-config;
#A set rolloff 8 \; blur 0.1 \; positions -0.530331 0.530329 -0.75
-1.67489e-06 -0.530329 -0.530332 2.51234e-06 -0.75 0.530332 -0.530328
0.75 3.34978e-06 0.530328 0.530333 -4.18723e-06 0.75 \; gain 100 \;
;
#X obj 107 108 tgl 15 0 empty \$0-auto empty 17 7 0 10 -262144 -1 -1
0 1;
#X obj 29 156 *~;
#X obj 14 179 *~;
#X obj 46 179 nbx 5 14 0 100 0 0 empty \$0-gain empty 0 -8 0 10 -262144
-1 -1 80 256;
#X obj 14 223 *~, f 5;
#N canvas 0 23 450 300 init 0;
#X obj 13 42 loadbang;
#X obj 13 86 s \$0-gain;
#X obj 82 42 loadbang;
#X msg 82 64 0 0;
#X obj 152 42 loadbang;
#X obj 152 86 s \$0-hardness;
#X obj 242 42 loadbang;
#X obj 242 86 s \$0-opacity;
#X msg 242 64 100;
#X obj 322 42 loadbang;
#X obj 322 86 s \$0-size;
#X msg 322 64 1;
#X obj 82 86 s \$0-pos;
#X msg 152 64 100;
#X msg 13 64 60;
#X connect 0 0 14 0;
#X connect 2 0 3 0;
#X connect 3 0 12 0;
#X connect 4 0 13 0;
#X connect 6 0 8 0;
#X connect 8 0 7 0;
#X connect 9 0 11 0;
#X connect 11 0 10 0;
#X connect 13 0 5 0;
#X connect 14 0 1 0;
#X restore 340 652 pd init;
#X obj 5 13 xel.header xel.2d.syn.kernel~;
#X obj 270 256 r \$0-brush;
#X obj 107 231 s \$0-brush;
#X text 114 152 Coordinates (-1 to 1), f 12;
#N canvas 0 22 450 300 gain 0;
#X obj 10 45 dbtorms;
#X obj 10 67 pack f 20;
#X obj 10 89 line~;
#X obj 10 25 inlet;
#X obj 10 111 outlet~;
#X connect 0 0 1 0;
#X connect 1 0 2 0;
#X connect 2 0 4 0;
#X connect 3 0 0 0;
#X restore 46 199 pd gain;
#N canvas 0 22 573 343 traj 0;
#X obj 54 191 t f f, f 15;
#X obj 54 279 pack f f, f 15;
#X obj 54 237 * 6.28319;
#X obj 141 237 * 6.28319;
#X obj 54 128 line 0;
#X obj 54 257 sin;
#X obj 141 257 sin;
#X obj 54 215 * 3;
#X obj 141 215 * 1;
#X msg 54 104 \$1 \, 1 10000;
#X obj 54 80 f 0;
#X obj 144 96 sel 1;
#X msg 17 104 stop;
#X obj 17 53 sel 0 1, f 13;
#X obj 144 118 f 0;
#X obj 17 25 inlet;
#X obj 54 301 outlet;
#X connect 0 0 7 0;
#X connect 0 1 8 0;
#X connect 1 0 16 0;
#X connect 2 0 5 0;
#X connect 3 0 6 0;
#X connect 4 0 0 0;
#X connect 4 0 11 0;
#X connect 5 0 1 0;
#X connect 6 0 1 1;
#X connect 7 0 2 0;
#X connect 8 0 3 0;
#X connect 9 0 4 0;
#X connect 10 0 9 0;
#X connect 11 0 14 0;
#X connect 11 1 10 1;
#X connect 12 0 4 0;
#X connect 13 0 12 0;
#X connect 13 1 10 0;
#X connect 14 0 10 0;
#X connect 15 0 13 0;
#X restore 107 129 pd traj;
#X obj 29 134 osc~ 5;
#X obj 340 673 declare -stdpath spam;
#N canvas 217 367 450 300 pos 0;
#X obj 145 100 nbx 4 14 -1e+37 1e+37 0 0 empty empty empty 0 -8 0 10
-262144 -1 -1 0 256;
#X obj 100 100 nbx 4 14 -1e+37 1e+37 0 0 empty empty empty 0 -8 0 10
-262144 -1 -1 0 256;
#X obj 119 77 t b f;
#X obj 101 150 pack 1 f;
#X obj 101 18 r \$0-pos;
#X obj 101 40 unpack f f;
#X obj 101 172 outlet;
#X obj 164 19 inlet;
#X connect 0 0 2 0;
#X connect 1 0 3 0;
#X connect 2 0 1 0;
#X connect 2 1 3 1;
#X connect 3 0 6 0;
#X connect 4 0 5 0;
#X connect 5 0 1 0;
#X connect 5 1 0 0;
#X connect 7 0 5 0;
#X coords 0 -1 1 1 90 14 2 100 100;
#X restore 107 190 pd pos;
#X msg 285 210 opacity \$1;
#X obj 285 188 nbx 5 14 0 100 0 0 empty \$0-opacity empty 0 -8 0 10
-262144 -1 -1 100 256;
#X obj 370 188 nbx 5 14 0 100 0 0 empty \$0-hardness empty 0 -8 0 10
-262144 -1 -1 100 256;
#X msg 370 210 hardness \$1;
#X obj 370 232 s \$0-brush;
#X obj 207 190 nbx 5 14 1 10 0 0 empty \$0-size empty 0 -8 0 10 -262144
-1 -1 1 256;
#X msg 207 209 size \$1;
#X text 206 151 Size (min 1), f 8;
#X text 370 149 Hardness (0 to 100), f 10;
#X obj 285 232 s \$0-brush;
#X obj 207 231 s \$0-brush;
#X text 285 149 Opacity (0 to 100), f 10;
#X obj 14 277 spam~ 25 xel.2d.syn.brush~ 5 5, f 37;
#X obj 14 403 spam~ 25 xel.2d.gui.scope~ 5 5 \$0-scope \$0-config,
f 37;
#X obj 4 719 xel.footer;
#X obj 401 624 bng 15 250 50 0 empty empty empty 17 7 0 10 -262144
-1 -1;
#X obj 401 650 spam.connect;
#N canvas 0 22 450 300 \$0-scope-2 0;
#X scalar 10112-t-scope 0 \; -1 1 -0.6 0.6 999 0 \; -0.6 1 -0.2 0.6
999 0 \; -0.2 1 0.2 0.6 999 0 \; 0.2 1 0.6 0.6 999 0 \; 0.6 1 1 0.6
999 0 \; -1 0.6 -0.6 0.2 999 0 \; -0.6 0.6 -0.2 0.2 999 0 \; -0.2 0.6
0.2 0.2 90 0 \; 0.2 0.6 0.6 0.2 999 0 \; 0.6 0.6 1 0.2 999 0 \; -1
0.2 -0.6 -0.2 999 0 \; -0.6 0.2 -0.2 -0.2 90 0 \; -0.2 0.2 0.2 -0.2
90 0 \; 0.2 0.2 0.6 -0.2 90 0 \; 0.6 0.2 1 -0.2 999 0 \; -1 -0.2 -0.6
-0.6 999 0 \; -0.6 -0.2 -0.2 -0.6 999 0 \; -0.2 -0.2 0.2 -0.6 90 0
\; 0.2 -0.2 0.6 -0.6 999 0 \; 0.6 -0.2 1 -0.6 999 0 \; -1 -0.6 -0.6
-1 999 0 \; -0.6 -0.6 -0.2 -1 999 0 \; -0.2 -0.6 0.2 -1 999 0 \; 0.2
-0.6 0.6 -1 999 0 \; 0.6 -0.6 1 -1 999 0 \; \;;
#X coords -1 1 1 -1 171 171 2 100 100;
#X restore 584 406 pd \$0-scope-2;
#X obj 14 553 spam~ 25 xel.2d.gui.scope~ 5 5 \$0-scope-2 \$0-config
, f 39;
#N canvas 0 22 450 300 \$0-kernel 0;
#X scalar 10137-stuct-matrix -1 1 -0.6 0.6 -0.9 0.8 999 0 0 0 \;;
#X scalar 10137-stuct-matrix -0.6 1 -0.2 0.6 -0.5 0.8 999 0 0 1 \;
;
#X scalar 10137-stuct-matrix -0.2 1 0.2 0.6 -0.1 0.8 999 0 0 2 \;;
#X scalar 10137-stuct-matrix 0.2 1 0.6 0.6 0.3 0.8 999 0 0 3 \;;
#X scalar 10137-stuct-matrix 0.6 1 1 0.6 0.7 0.8 999 0 0 4 \;;
#X scalar 10137-stuct-matrix -1 0.6 -0.6 0.2 -0.9 0.4 999 0 0 5 \;
;
#X scalar 10137-stuct-matrix -0.6 0.6 -0.2 0.2 -0.5 0.4 999 0 0 6 \;
;
#X scalar 10137-stuct-matrix -0.2 0.6 0.2 0.2 -0.1 0.4 999 0 1 7 \;
;
#X scalar 10137-stuct-matrix 0.2 0.6 0.6 0.2 0.3 0.4 999 0 0 8 \;;
#X scalar 10137-stuct-matrix 0.6 0.6 1 0.2 0.7 0.4 999 0 0 9 \;;
#X scalar 10137-stuct-matrix -1 0.2 -0.6 -0.2 -0.9 -1.49012e-08 999
0 0 10 \;;
#X scalar 10137-stuct-matrix -0.6 0.2 -0.2 -0.2 -0.5 -1.49012e-08 999
0 1 11 \;;
#X scalar 10137-stuct-matrix -0.2 0.2 0.2 -0.2 -0.1 -1.49012e-08 999
0 92 12 \;;
#X scalar 10137-stuct-matrix 0.2 0.2 0.6 -0.2 0.3 -1.49012e-08 999
0 1 13 \;;
#X scalar 10137-stuct-matrix 0.6 0.2 1 -0.2 0.7 -1.49012e-08 999 0
0 14 \;;
#X scalar 10137-stuct-matrix -1 -0.2 -0.6 -0.6 -0.9 -0.4 999 0 0 15
\;;
#X scalar 10137-stuct-matrix -0.6 -0.2 -0.2 -0.6 -0.5 -0.4 999 0 0
16 \;;
#X scalar 10137-stuct-matrix -0.2 -0.2 0.2 -0.6 -0.1 -0.4 999 0 1 17
\;;
#X scalar 10137-stuct-matrix 0.2 -0.2 0.6 -0.6 0.3 -0.4 999 0 0 18
\;;
#X scalar 10137-stuct-matrix 0.6 -0.2 1 -0.6 0.7 -0.4 999 0 0 19 \;
;
#X scalar 10137-stuct-matrix -1 -0.6 -0.6 -1 -0.9 -0.8 999 0 0 20 \;
;
#X scalar 10137-stuct-matrix -0.6 -0.6 -0.2 -1 -0.5 -0.8 999 0 0 21
\;;
#X scalar 10137-stuct-matrix -0.2 -0.6 0.2 -1 -0.1 -0.8 999 0 0 22
\;;
#X scalar 10137-stuct-matrix 0.2 -0.6 0.6 -1 0.3 -0.8 999 0 0 23 \;
;
#X scalar 10137-stuct-matrix 0.6 -0.6 1 -1 0.7 -0.8 999 0 0 24 \;;
#X coords -1 1 1 -1 171 171 2 100 100;
#X restore 584 231 pd \$0-kernel;
#X obj 284 487 xel.2d.gui.mat \$0-kernel 3 3;
#X msg 284 311 matrix 5 5;
#X obj 14 641 spam~ 8 xel.2d.gui.meter~ 8 \$0-meter \$0-config,
f 39;
#X obj 14 695 dac~ 1 2 3 4 5 6 7 8, f 39;
#N canvas 0 22 450 300 \$0-meter 0;
#X scalar 10141-t-meter 0 \; -0.530331 0.530329 8 16 24 32 555 90 990
950 900 1 0 0 0 \; -0.75 -1.67489e-06 8 16 24 32 555 90 990 950 900
1 0 0 0 \; -0.530329 -0.530332 8 16 24 32 555 90 990 950 900 1 0 0
0 \; 2.51234e-06 -0.75 8 16 24 32 555 90 990 950 900 1 0 0 0 \; 0.530332
-0.530328 8 16 24 32 555 90 990 950 900 1 0 0 0 \; 0.75 3.34978e-06
8 16 24 32 555 90 990 950 900 1 0 0 0 \; 0.530328 0.530333 8 16 24
32 555 90 990 950 900 1 0 0 0 \; -4.18723e-06 0.75 8 16 24 32 555 90
990 950 900 1 0 0 0 \; \;;
#X coords -1 1 1 -1 171 171 2 100 100;
#X restore 584 582 pd \$0-meter;
#X obj 14 603 spam~ 25 xel.2d.proj.dbap~ 5 5 8 \$0-config, f 39;
#X msg 325 432 deviation \$1;
#X obj 325 413 nbx 5 14 0.001 10 0 0 empty empty empty 0 -8 0 10 -262144
-1 -1 0.18 256;
#X msg 305 359 deviation \$1;
#X obj 305 340 nbx 5 14 0.001 3 0 0 empty empty empty 0 -8 0 10 -262144
-1 -1 0.001 256;
#X obj 305 382 xel.2d.mat.fltr.log 3 3;
#X obj 14 519 spam~ 25 xel.2d.fx.kernel~ 5 5, f 39;
#X obj 14 111 noise~;
#X msg 425 432 matrix \$1 \$1;
#X obj 425 407 nbx 5 14 1 5 0 0 empty empty empty 0 -8 0 10 -262144
-1 -1 5 256;
#X obj 325 456 xel.2d.mat.blur.gaussian 3 3;
#X msg 405 358 matrix \$1 \$1;
#X obj 405 333 nbx 5 14 1 5 0 0 empty empty empty 0 -8 0 10 -262144
-1 -1 5 256;
#X text 284 285 Generates a kernel or draw it;
#X obj 370 547 xel.dsp~;
#X text 4 38 The abstraction applies a kernel on the sound space. Depending
on the kernel \, the convolution can result a wide range of effects:
blur \, sharpening \, etc., f 67;
#X connect 2 0 13 0;
#X connect 3 0 4 1;
#X connect 4 0 6 0;
#X connect 5 0 12 0;
#X connect 6 0 29 0;
#X connect 9 0 29 1;
#X connect 12 0 6 1;
#X connect 13 0 16 0;
#X connect 14 0 3 0;
#X connect 14 0 3 1;
#X connect 16 0 10 0;
#X connect 17 0 26 0;
#X connect 18 0 17 0;
#X connect 19 0 20 0;
#X connect 20 0 21 0;
#X connect 22 0 23 0;
#X connect 23 0 27 0;
#X connect 29 0 30 0;
#X connect 29 0 48 0;
#X connect 29 1 30 1;
#X connect 29 1 48 1;
#X connect 29 2 30 2;
#X connect 29 2 48 2;
#X connect 29 3 30 3;
#X connect 29 3 48 3;
#X connect 29 4 30 4;
#X connect 29 4 48 4;
#X connect 29 5 30 5;
#X connect 29 5 48 5;
#X connect 29 6 30 6;
#X connect 29 6 48 6;
#X connect 29 7 30 7;
#X connect 29 7 48 7;
#X connect 29 8 30 8;
#X connect 29 8 48 8;
#X connect 29 9 30 9;
#X connect 29 9 48 9;
#X connect 29 10 30 10;
#X connect 29 10 48 10;
#X connect 29 11 30 11;
#X connect 29 11 48 11;
#X connect 29 12 30 12;
#X connect 29 12 48 12;
#X connect 29 13 30 13;
#X connect 29 13 48 13;
#X connect 29 14 30 14;
#X connect 29 14 48 14;
#X connect 29 15 30 15;
#X connect 29 15 48 15;
#X connect 29 16 30 16;
#X connect 29 16 48 16;
#X connect 29 17 30 17;
#X connect 29 17 48 17;
#X connect 29 18 30 18;
#X connect 29 18 48 18;
#X connect 29 19 30 19;
#X connect 29 19 48 19;
#X connect 29 20 30 20;
#X connect 29 20 48 20;
#X connect 29 21 30 21;
#X connect 29 21 48 21;
#X connect 29 22 30 22;
#X connect 29 22 48 22;
#X connect 29 23 30 23;
#X connect 29 23 48 23;
#X connect 29 24 30 24;
#X connect 29 24 48 24;
#X connect 32 0 33 0;
#X connect 37 0 48 25;
#X connect 38 0 37 0;
#X connect 42 0 39 0;
#X connect 42 0 40 0;
#X connect 42 1 39 1;
#X connect 42 1 40 1;
#X connect 42 2 39 2;
#X connect 42 2 40 2;
#X connect 42 3 39 3;
#X connect 42 3 40 3;
#X connect 42 4 39 4;
#X connect 42 4 40 4;
#X connect 42 5 39 5;
#X connect 42 5 40 5;
#X connect 42 6 39 6;
#X connect 42 6 40 6;
#X connect 42 7 39 7;
#X connect 42 7 40 7;
#X connect 43 0 52 0;
#X connect 44 0 43 0;
#X connect 45 0 47 0;
#X connect 46 0 45 0;
#X connect 47 0 37 0;
#X connect 48 0 35 0;
#X connect 48 0 42 0;
#X connect 48 1 35 1;
#X connect 48 1 42 1;
#X connect 48 2 35 2;
#X connect 48 2 42 2;
#X connect 48 3 35 3;
#X connect 48 3 42 3;
#X connect 48 4 35 4;
#X connect 48 4 42 4;
#X connect 48 5 35 5;
#X connect 48 5 42 5;
#X connect 48 6 35 6;
#X connect 48 6 42 6;
#X connect 48 7 35 7;
#X connect 48 7 42 7;
#X connect 48 8 35 8;
#X connect 48 8 42 8;
#X connect 48 9 35 9;
#X connect 48 9 42 9;
#X connect 48 10 35 10;
#X connect 48 10 42 10;
#X connect 48 11 35 11;
#X connect 48 11 42 11;
#X connect 48 12 35 12;
#X connect 48 12 42 12;
#X connect 48 13 35 13;
#X connect 48 13 42 13;
#X connect 48 14 35 14;
#X connect 48 14 42 14;
#X connect 48 15 35 15;
#X connect 48 15 42 15;
#X connect 48 16 35 16;
#X connect 48 16 42 16;
#X connect 48 17 35 17;
#X connect 48 17 42 17;
#X connect 48 18 35 18;
#X connect 48 18 42 18;
#X connect 48 19 35 19;
#X connect 48 19 42 19;
#X connect 48 20 35 20;
#X connect 48 20 42 20;
#X connect 48 21 35 21;
#X connect 48 21 42 21;
#X connect 48 22 35 22;
#X connect 48 22 42 22;
#X connect 48 23 35 23;
#X connect 48 23 42 23;
#X connect 48 24 35 24;
#X connect 48 24 42 24;
#X connect 49 0 4 0;
#X connect 50 0 52 0;
#X connect 51 0 50 0;
#X connect 52 0 37 0;
#X connect 53 0 47 0;
#X connect 54 0 53 0;
#X coords 0 777 1 776 85 60 0;
