#N struct 1114-stuct-matrix float x1 float y1 float x2 float y2 float
xv float yv float c1 float c2 float val float index;
#N canvas 550 92 545 355 10;
#X obj 6 7 xel.header xel.2d.mat.clip;
#X obj 6 294 xel.footer;
#N canvas 0 22 1029 742 \$0-canvas 0;
#X scalar 1114-stuct-matrix -1 1 -0.6 0.6 -0.9 0.8 999 0 0 0 \;;
#X scalar 1114-stuct-matrix -0.6 1 -0.2 0.6 -0.5 0.8 999 0 0 1 \;;
#X scalar 1114-stuct-matrix -0.2 1 0.2 0.6 -0.1 0.8 999 0 0 2 \;;
#X scalar 1114-stuct-matrix 0.2 1 0.6 0.6 0.3 0.8 999 0 0 3 \;;
#X scalar 1114-stuct-matrix 0.6 1 1 0.6 0.7 0.8 999 0 0 4 \;;
#X scalar 1114-stuct-matrix -1 0.6 -0.6 0.2 -0.9 0.4 999 0 0 5 \;;
#X scalar 1114-stuct-matrix -0.6 0.6 -0.2 0.2 -0.5 0.4 999 0 0 6 \;
;
#X scalar 1114-stuct-matrix -0.2 0.6 0.2 0.2 -0.1 0.4 999 0 100 7 \;
;
#X scalar 1114-stuct-matrix 0.2 0.6 0.6 0.2 0.3 0.4 999 0 36 8 \;;
#X scalar 1114-stuct-matrix 0.6 0.6 1 0.2 0.7 0.4 999 0 0 9 \;;
#X scalar 1114-stuct-matrix -1 0.2 -0.6 -0.2 -0.9 -1.49012e-08 999
0 0 10 \;;
#X scalar 1114-stuct-matrix -0.6 0.2 -0.2 -0.2 -0.5 -1.49012e-08 999
0 0 11 \;;
#X scalar 1114-stuct-matrix -0.199006 0.199006 0.2 -0.2 -0.1 -1.49012e-08
999 0 0 12 \;;
#X scalar 1114-stuct-matrix 0.2 0.2 0.6 -0.2 0.3 -1.49012e-08 999 0
100 13 \;;
#X scalar 1114-stuct-matrix 0.6 0.2 1 -0.2 0.7 -1.49012e-08 999 0 0
14 \;;
#X scalar 1114-stuct-matrix -1 -0.2 -0.6 -0.6 -0.9 -0.4 999 0 0 15
\;;
#X scalar 1114-stuct-matrix -0.6 -0.2 -0.2 -0.6 -0.5 -0.4 999 0 0 16
\;;
#X scalar 1114-stuct-matrix -0.2 -0.2 0.2 -0.6 -0.1 -0.4 999 0 0 17
\;;
#X scalar 1114-stuct-matrix 0.2 -0.2 0.6 -0.6 0.3 -0.4 999 0 0 18 \;
;
#X scalar 1114-stuct-matrix 0.6 -0.2 1 -0.6 0.7 -0.4 999 0 72 19 \;
;
#X scalar 1114-stuct-matrix -1 -0.6 -0.6 -1 -0.9 -0.8 999 0 0 20 \;
;
#X scalar 1114-stuct-matrix -0.6 -0.6 -0.2 -1 -0.5 -0.8 999 0 0 21
\;;
#X scalar 1114-stuct-matrix -0.2 -0.6 0.2 -1 -0.1 -0.8 999 0 0 22 \;
;
#X scalar 1114-stuct-matrix 0.2 -0.6 0.6 -1 0.3 -0.8 999 0 0 23 \;
;
#X scalar 1114-stuct-matrix 0.6 -0.6 1 -1 0.7 -0.8 999 0 0 24 \;;
#X coords -1 1 1 -1 201 201 2 100 100;
#X restore 7 68 pd \$0-canvas;
#X obj 224 189 list trim;
#X msg 224 211 matrix 5 5 0 0 0 0 0 0 0 1 0.36 0 0 0 0 1 0 0 0 0 0
0.72 0 0 0 0 0, f 38;
#X obj 243 114 xel.2d.gui.mat \$0-canvas 5 5;
#X obj 243 137 xel.2d.mat.clip 0 1;
#X obj 224 166 list prepend set;
#X text 4 31 The abstraction clips the values of a matrix.;
#X connect 3 0 4 0;
#X connect 3 0 5 0;
#X connect 5 0 6 0;
#X connect 6 0 7 0;
#X connect 7 0 3 0;
