#N struct 1008-stuct-matrix float x1 float y1 float x2 float y2 float
xv float yv float c1 float c2 float val float index;
#N struct 1006-struct float x float y symbol name;
#N canvas 383 105 919 705 10;
#N canvas 0 22 450 300 \$0-pattern 0;
#X scalar 1008-stuct-matrix -1 1 1 -1 -0.5 0 999 0 0 0 \;;
#X coords -1 1 1 -1 111 111 2 100 100;
#X restore 18 84 pd \$0-pattern;
#X obj 497 440 xel.preset \$0-patterns;
#X obj 50 67 nbx 3 14 1 25 0 0 \$0-size-s \$0-size-r empty 0 -8 0 10
-262144 -1 -1 1 256;
#X msg 497 338 matrix \$1 \$1;
#X obj 497 316 r \$0-size-s;
#X text 16 66 Size:;
#X obj 497 462 list split 2;
#X obj 531 483 list trim;
#X obj 132 135 vradio 15 1 0 4 \$0-filling-mode-s \$0-filling-mode-r
empty 0 -8 0 10 -262144 -1 -1 1;
#X text 151 136 fill;
#X text 151 151 replace;
#X text 152 165 add;
#X text 151 180 subtract;
#X text 131 118 Mode, f 9;
#X obj 132 101 nbx 3 14 0 100 0 0 \$0-opacity-s \$0-opacity-r empty
0 -8 0 10 -262144 -1 -1 100 256;
#X text 131 83 Opacity, f 9;
#X text 170 101 %;
#X text 91 67 cells;
#N canvas 0 22 450 300 limiter 0;
#X coords 0 -1 1 1 197 163 2 100 100;
#X restore 10 40 pd limiter;
#X obj 659 286 r \$0-opacity-s;
#X obj 686 391 pack f f, f 13;
#X obj 731 309 r \$0-filling-mode-s;
#X obj 497 530 unpack f f;
#X obj 588 527 s \$0-size-r;
#X obj 531 505 unpack s f;
#X obj 507 572 s \$0-opacity-r;
#X obj 574 594 s \$0-filling-mode-r;
#X symbolatom 132 252 10 0 0 0 - #0-store-name-r #0-store-name-s,
f 10;
#X obj 180 235 bng 14 250 50 0 \$0-store-s \$0-store-r empty 17 7 0
10 -262144 -1 -1;
#X obj 58 358 bng 14 250 50 0 \$0-write-s \$0-write-r empty 17 7 0
10 -262144 -1 -1;
#X obj 422 216 r \$0-store-name-s;
#X msg 418 309 store \$1;
#X text 15 358 Write;
#X obj 391 195 r \$0-store-s;
#X obj 437 23 r \$0-write-s;
#X obj 437 45 savepanel;
#X msg 437 67 write \$1;
#X symbolatom 132 292 10 0 0 0 - #0-load-name-r #0-load-name-s, f
10;
#X obj 180 275 bng 14 250 50 0 \$0-load-s \$0-load-r empty 17 7 0 10
-262144 -1 -1;
#X obj 125 358 bng 14 250 50 0 \$0-read-s \$0-read-r empty 17 7 0 10
-262144 -1 -1;
#X obj 517 45 openpanel;
#X msg 517 67 read \$1;
#X text 87 358 Read;
#X obj 517 23 r \$0-read-s;
#N canvas 0 22 450 300 init 0;
#X obj 18 72 s \$0-store-name-r;
#X msg 18 46 symbol;
#X obj 18 21 loadbang;
#X obj 128 21 loadbang;
#X obj 128 72 s \$0-size-r;
#X msg 128 46 1;
#X obj 208 21 loadbang;
#X obj 208 72 s \$0-opacity-r;
#X msg 208 46 100;
#X obj 298 21 loadbang;
#X obj 298 72 s \$0-filling-mode-r;
#X msg 298 46 0;
#X obj 28 92 s \$0-load-name-r;
#X obj 38 113 s \$0-del-name-r;
#X connect 1 0 0 0;
#X connect 1 0 12 0;
#X connect 1 0 13 0;
#X connect 2 0 1 0;
#X connect 3 0 5 0;
#X connect 5 0 4 0;
#X connect 6 0 8 0;
#X connect 8 0 7 0;
#X connect 9 0 11 0;
#X connect 11 0 10 0;
#X restore 5 10 pd init;
#X obj 497 363 xel.2d.gui.mat \$0-pattern;
#N canvas 0 22 450 300 limiter 0;
#X coords 0 -1 1 1 197 149 2 100 100;
#X restore 10 203 pd limiter;
#N canvas 0 22 190 180 fltr.sym 0;
#X obj 11 16 inlet;
#X obj 11 38 t s s, f 8;
#X obj 11 121 spigot, f 8;
#X msg 56 100 0;
#X msg 83 100 1;
#X obj 56 58 makefilename z%s;
#X obj 56 78 sel z;
#X obj 11 143 outlet;
#X connect 0 0 1 0;
#X connect 1 0 2 0;
#X connect 1 1 5 0;
#X connect 2 0 7 0;
#X connect 3 0 2 1;
#X connect 4 0 2 1;
#X connect 5 0 6 0;
#X connect 6 0 3 0;
#X connect 6 1 4 0;
#X restore 422 239 pd fltr.sym;
#X obj 391 265 symbol;
#N canvas 0 22 190 180 fltr.sym 0;
#X obj 11 16 inlet;
#X obj 11 38 t s s, f 8;
#X obj 11 121 spigot, f 8;
#X msg 56 100 0;
#X msg 83 100 1;
#X obj 56 58 makefilename z%s;
#X obj 56 78 sel z;
#X obj 11 143 outlet;
#X connect 0 0 1 0;
#X connect 1 0 2 0;
#X connect 1 1 5 0;
#X connect 2 0 7 0;
#X connect 3 0 2 1;
#X connect 4 0 2 1;
#X connect 5 0 6 0;
#X connect 6 0 3 0;
#X connect 6 1 4 0;
#X restore 312 239 pd fltr.sym;
#X obj 281 265 symbol;
#X obj 312 216 r \$0-load-name-s;
#N canvas 0 22 450 300 \$0-presets-names 0;
#X scalar 1006-struct 0.025 0 pen \;;
#X scalar 1006-struct 0.025 6.875 rubber \;;
#X scalar 1006-struct 0.025 13.75 brush \;;
#X coords 0 0 1 110 111 111 2 100 100;
#X restore 18 235 pd \$0-presets-names;
#X text 132 234 Store:;
#X text 131 274 Load:;
#N canvas 629 94 539 512 redraw.list 0;
#X obj 303 257 pointer;
#X obj 33 64 bng 15 250 50 0 empty empty empty 17 7 0 10 -262144 -1
-1;
#X obj 33 84 f \$0;
#X msg 324 197 \; pd-\$1-presets-names clear;
#X msg 303 234 traverse pd-\$1-presets-names \, bang;
#X obj 33 105 t b f f, f 49;
#X obj 33 308 set -symbol \$0-struct name;
#X obj 33 130 text size \$0-patterns;
#X obj 33 152 t f b, f 7;
#X obj 33 174 until;
#X obj 33 196 f, f 7;
#X obj 83 196 + 1;
#X obj 72 174 f 0;
#X obj 33 243 text get \$0-patterns;
#X obj 33 285 symbol;
#X obj 33 218 t f f, f 26;
#X obj 33 265 list trim;
#X msg 186 264 0.025 \$1;
#X obj 186 243 * 6.875;
#X obj 186 285 append \$0-struct x y;
#X obj 33 35 inlet;
#N canvas 681 495 441 114 \$0-struct 0;
#X obj 9 34 outlet;
#X obj 53 34 drawsymbol name x y 0;
#X obj 53 55 drawpolygon 0 1 -0.02 y(0:110)(13.75:123.75) 0.98 y(0:110)(13.75:123.75)
;
#X obj 9 12 struct \$0-struct float x float y symbol name;
#X connect 3 0 0 0;
#X restore 31 342 pd \$0-struct;
#X obj 31 364 route click;
#X obj 31 389 get \$0-struct name;
#X obj 31 411 outlet;
#X obj 81 38 loadbang;
#X connect 0 0 19 2;
#X connect 1 0 2 0;
#X connect 2 0 5 0;
#X connect 4 0 0 0;
#X connect 5 0 7 0;
#X connect 5 1 4 0;
#X connect 5 2 3 0;
#X connect 7 0 8 0;
#X connect 8 0 9 0;
#X connect 8 1 12 0;
#X connect 9 0 10 0;
#X connect 10 0 11 0;
#X connect 10 0 15 0;
#X connect 11 0 10 1;
#X connect 12 0 10 1;
#X connect 13 0 16 0;
#X connect 14 0 6 0;
#X connect 15 0 13 0;
#X connect 15 1 18 0;
#X connect 16 0 14 0;
#X connect 17 0 19 0;
#X connect 18 0 17 0;
#X connect 19 0 6 1;
#X connect 20 0 1 0;
#X connect 21 0 22 0;
#X connect 22 0 23 0;
#X connect 23 0 24 0;
#X connect 25 0 1 0;
#X restore 634 163 pd redraw.list;
#X obj 418 331 t b a;
#X obj 418 353 s \$0-redraw;
#X obj 634 141 r \$0-redraw;
#X symbolatom 132 332 10 0 0 0 - #0-del-name-r #0-del-name-s, f 10
;
#X obj 180 315 bng 14 250 50 0 \$0-del-s \$0-del-r empty 17 7 0 10
-262144 -1 -1;
#N canvas 0 22 190 180 fltr.sym 0;
#X obj 11 16 inlet;
#X obj 11 38 t s s, f 8;
#X obj 11 121 spigot, f 8;
#X msg 56 100 0;
#X msg 83 100 1;
#X obj 56 58 makefilename z%s;
#X obj 56 78 sel z;
#X obj 11 143 outlet;
#X connect 0 0 1 0;
#X connect 1 0 2 0;
#X connect 1 1 5 0;
#X connect 2 0 7 0;
#X connect 3 0 2 1;
#X connect 4 0 2 1;
#X connect 5 0 6 0;
#X connect 6 0 3 0;
#X connect 6 1 4 0;
#X restore 359 459 pd fltr.sym;
#X obj 328 485 symbol;
#X obj 328 531 t b a;
#X obj 328 553 s \$0-redraw;
#X obj 359 436 r \$0-del-name-s;
#X msg 328 509 delete \$1;
#X obj 328 415 r \$0-del-s;
#X obj 634 262 s \$0-load-name-r;
#X obj 634 185 t s s;
#X msg 661 210 set \$1;
#X obj 661 235 s \$0-store-name-r;
#X obj 297 617 s \$0-del-name-r;
#X msg 297 595 set \$1;
#X msg 297 575 symbol;
#X text 131 314 Delete:;
#X text 90 44 Editor;
#X text 82 211 Presets;
#N canvas 0 22 450 300 limiter 0;
#X coords 0 -1 1 1 197 25 2 100 100;
#X restore 10 352 pd limiter;
#N canvas 0 22 450 300 format 0;
#X obj 60 63 sel 0 1 2;
#X obj 59 43 inlet;
#X obj 78 173 outlet;
#X msg 141 120 symbol subtract;
#X msg 107 111 symbol add;
#X msg 95 84 symbol replace;
#X msg 60 85 symbol fill;
#X connect 0 0 6 0;
#X connect 0 1 5 0;
#X connect 0 2 4 0;
#X connect 0 3 3 0;
#X connect 1 0 0 0;
#X connect 3 0 2 0;
#X connect 4 0 2 0;
#X connect 5 0 2 0;
#X connect 6 0 2 0;
#X restore 554 625 pd format;
#X obj 497 666 pack f s, f 10;
#X obj 497 688 outlet;
#X obj 660 697 outlet;
#X obj 626 631 list split 1;
#X obj 660 654 list prepend pattern;
#X obj 660 676 list trim;
#X obj 437 89 t b a;
#X obj 464 114 text define \$0-patterns;
#X obj 497 416 list prepend 1 0, f 32;
#X obj 731 331 t f f;
#X obj 639 496 t b f;
#X obj 659 329 t f f;
#X obj 659 308 / 100;
#X obj 507 552 * 100;
#X obj 391 287 t s s;
#X obj 281 195 r \$0-load-s;
#X obj 307 352 s \$0-load-name-r;
#X obj 759 353 t b f;
#X obj 671 359 t b f;
#X obj 715 357 t b b;
#X connect 1 0 6 0;
#X connect 3 0 45 0;
#X connect 4 0 3 0;
#X connect 6 0 22 0;
#X connect 6 1 7 0;
#X connect 6 1 83 0;
#X connect 7 0 24 0;
#X connect 7 0 45 0;
#X connect 19 0 92 0;
#X connect 20 0 88 1;
#X connect 21 0 89 0;
#X connect 22 0 80 0;
#X connect 22 0 93 0;
#X connect 22 1 26 0;
#X connect 22 1 79 0;
#X connect 24 1 23 0;
#X connect 30 0 47 0;
#X connect 31 0 56 0;
#X connect 33 0 48 0;
#X connect 34 0 35 0;
#X connect 35 0 36 0;
#X connect 36 0 86 0;
#X connect 40 0 41 0;
#X connect 41 0 86 0;
#X connect 43 0 40 0;
#X connect 45 0 88 0;
#X connect 47 0 48 0;
#X connect 48 0 94 0;
#X connect 49 0 50 0;
#X connect 50 0 1 0;
#X connect 51 0 49 0;
#X connect 55 0 69 0;
#X connect 55 0 48 1;
#X connect 56 0 57 0;
#X connect 56 1 1 0;
#X connect 58 0 55 0;
#X connect 61 0 62 0;
#X connect 62 0 66 0;
#X connect 63 0 64 0;
#X connect 63 0 74 0;
#X connect 63 1 1 0;
#X connect 65 0 61 0;
#X connect 66 0 63 0;
#X connect 67 0 62 0;
#X connect 69 0 68 0;
#X connect 69 1 70 0;
#X connect 70 0 71 0;
#X connect 73 0 72 0;
#X connect 74 0 73 0;
#X connect 79 0 80 1;
#X connect 80 0 81 0;
#X connect 83 1 84 0;
#X connect 84 0 85 0;
#X connect 85 0 82 0;
#X connect 86 0 55 0;
#X connect 86 1 87 0;
#X connect 88 0 1 0;
#X connect 89 0 90 0;
#X connect 89 1 97 0;
#X connect 90 0 80 0;
#X connect 90 1 79 0;
#X connect 91 0 80 0;
#X connect 91 1 98 0;
#X connect 92 0 91 0;
#X connect 93 0 25 0;
#X connect 94 0 96 0;
#X connect 94 1 31 0;
#X connect 95 0 50 0;
#X connect 97 0 99 0;
#X connect 97 1 20 1;
#X connect 98 0 45 0;
#X connect 98 1 20 0;
#X connect 99 0 45 0;
#X connect 99 1 20 0;
#X coords 0 -1 1 1 197 337 2 10 40;
