#N struct 8532-t-scope float x array cells 8532-t-scope-value;
#N struct 8532-t-scope-value float x1 float y1 float x2 float y2 float
c1 float c2;
#N struct 8524-t-meter float x array ls 8524-t-meter-value;
#N struct 8524-t-meter-value float x1 float y1 float s1 float s2 float
s3 float s4 float c0 float c1 float c2 float c3 float c4 float v1 float
v2 float v3 float v4;
#N canvas 231 23 575 826 10;
#X declare -stdpath spam;
#X obj 308 246 tgl 15 0 empty empty empty 17 7 0 10 -262144 -1 -1 0
1;
#N canvas 0 22 573 343 trajectory 0;
#X obj 54 191 t f f, f 15;
#X obj 54 279 pack f f, f 15;
#X obj 54 237 * 6.28319;
#X obj 141 237 * 6.28319;
#X obj 54 128 line 0;
#X obj 54 257 sin;
#X obj 141 257 sin;
#X obj 54 215 * 3;
#X obj 141 215 * 1;
#X obj 54 80 f 0;
#X obj 144 96 sel 1;
#X obj 54 301 outlet;
#X msg 17 104 stop;
#X obj 17 53 sel 0 1, f 13;
#X obj 144 118 f 0;
#X obj 17 25 inlet;
#X msg 54 104 \$1 \, 1 5000;
#X connect 0 0 7 0;
#X connect 0 1 8 0;
#X connect 1 0 11 0;
#X connect 2 0 5 0;
#X connect 3 0 6 0;
#X connect 4 0 0 0;
#X connect 4 0 10 0;
#X connect 5 0 1 0;
#X connect 6 0 1 1;
#X connect 7 0 2 0;
#X connect 8 0 3 0;
#X connect 9 0 16 0;
#X connect 10 0 14 0;
#X connect 10 1 9 1;
#X connect 12 0 4 0;
#X connect 13 0 12 0;
#X connect 13 1 9 0;
#X connect 14 0 9 0;
#X connect 15 0 13 0;
#X connect 16 0 4 0;
#X restore 308 270 pd trajectory;
#X obj 237 262 nbx 5 14 1 1e+37 0 0 empty empty empty 0 -8 0 10 -262144
-1 -1 1 256;
#X obj 329 749 text define -k \$0-config;
#A set positions -0.530331 0.530329 -0.75 -1.67489e-06 -0.530329 -0.530332
2.51234e-06 -0.75 0.530332 -0.530328 0.75 3.34978e-06 0.530328 0.530333
-4.18723e-06 0.75 \; rolloff 10 \; blur 0.01 \; gain 140 \;;
#X obj 38 752 dac~ 1 2 3 4 5 6 7 8, f 39;
#N canvas 0 22 223 200 \$0-scope 0;
#X scalar 8532-t-scope 0 \; -1 1 -0.666667 0.666667 999 0 \; -0.666667
1 -0.333333 0.666667 999 0 \; -0.333333 1 2.98023e-08 0.666667 999
0 \; 0 1 0.333333 0.666667 999 0 \; 0.333333 1 0.666667 0.666667 999
0 \; 0.666667 1 1 0.666667 999 0 \; -1 0.666667 -0.666667 0.333333
999 0 \; -0.666667 0.666667 -0.333333 0.333333 999 0 \; -0.333333 0.666667
2.98023e-08 0.333333 999 0 \; 0 0.666667 0.333333 0.333333 999 0 \;
0.333333 0.666667 0.666667 0.333333 999 0 \; 0.666667 0.666667 1 0.333333
999 0 \; -1 0.333333 -0.666667 -2.98023e-08 999 0 \; -0.666667 0.333333
-0.333333 -2.98023e-08 999 0 \; -0.333333 0.333333 2.98023e-08 -2.98023e-08
999 0 \; 0 0.333333 0.333333 -2.98023e-08 999 0 \; 0.333333 0.333333
0.666667 -2.98023e-08 999 0 \; 0.666667 0.333333 1 -2.98023e-08 999
0 \; -1 -0 -0.666667 -0.333333 999 0 \; -0.666667 -0 -0.333333 -0.333333
999 0 \; -0.333333 -0 2.98023e-08 -0.333333 999 0 \; 0 -0 0.333333
-0.333333 999 0 \; 0.333333 -0 0.666667 -0.333333 999 0 \; 0.666667
-0 1 -0.333333 999 0 \; -1 -0.333333 -0.666667 -0.666667 999 0 \; -0.666667
-0.333333 -0.333333 -0.666667 999 0 \; -0.333333 -0.333333 2.98023e-08
-0.666667 999 0 \; 0 -0.333333 0.333333 -0.666667 999 0 \; 0.333333
-0.333333 0.666667 -0.666667 999 0 \; 0.666667 -0.333333 1 -0.666667
999 0 \; -1 -0.666667 -0.666667 -1 999 0 \; -0.666667 -0.666667 -0.333333
-1 999 0 \; -0.333333 -0.666667 2.98023e-08 -1 999 0 \; 0 -0.666667
0.333333 -1 999 0 \; 0.333333 -0.666667 0.666667 -1 999 0 \; 0.666667
-0.666667 1 -1 999 0 \; \;;
#X coords -1 1 1 -1 153 153 2 100 100;
#X restore 79 363 pd \$0-scope;
#N canvas 0 22 450 300 \$0-meter 0;
#X scalar 8524-t-meter 0 \; -0.530331 0.530329 8 16 24 32 555 90 990
950 900 0 0 0 0 \; -0.75 -1.67489e-06 8 16 24 32 555 90 990 950 900
0 0 0 0 \; -0.530329 -0.530332 8 16 24 32 555 90 990 950 900 0 0 0
0 \; 2.51234e-06 -0.75 8 16 24 32 555 90 990 950 900 0 0 0 0 \; 0.530332
-0.530328 8 16 24 32 555 90 990 950 900 0 0 0 0 \; 0.75 3.34978e-06
8 16 24 32 555 90 990 950 900 0 0 0 0 \; 0.530328 0.530333 8 16 24
32 555 90 990 950 900 0 0 0 0 \; -4.18723e-06 0.75 8 16 24 32 555 90
990 950 900 0 0 0 0 \; \;;
#X coords -1 1 1 -1 153 153 2 100 100;
#X restore 80 592 pd \$0-meter;
#X obj 4 781 xel.footer;
#X obj 329 725 declare -stdpath spam;
#X obj 5 7 xel.header xel.2d.proj.dbap~;
#X obj 38 318 spam~ 36 xel.2d.syn.brush~ 6 6, f 39;
#X obj 38 556 spam~ 8 ../zpt/zpt.2d.meter~ 8 \$0-meter \$0-config,
f 39;
#X obj 38 340 spam~ 36 xel.2d.gui.scope~ 6 6 \$0-scope \$0-config,
f 39;
#N canvas 217 367 450 300 pos 0;
#X obj 145 100 nbx 4 14 -1e+37 1e+37 0 0 empty empty empty 0 -8 0 10
-262144 -1 -1 0 256;
#X obj 100 100 nbx 4 14 -1e+37 1e+37 0 0 empty empty empty 0 -8 0 10
-262144 -1 -1 0 256;
#X obj 119 77 t b f;
#X obj 101 150 pack 1 f;
#X obj 101 18 r \$0-pos;
#X obj 101 40 unpack f f;
#X obj 101 172 outlet;
#X obj 164 19 inlet;
#X connect 0 0 2 0;
#X connect 1 0 3 0;
#X connect 2 0 1 0;
#X connect 2 1 3 1;
#X connect 3 0 6 0;
#X connect 4 0 5 0;
#X connect 5 0 1 0;
#X connect 5 1 0 0;
#X connect 7 0 5 0;
#X coords 0 -1 1 1 90 14 2 100 100;
#X restore 308 298 pd pos;
#X msg 237 281 size \$1;
#X obj 56 232 *~;
#X obj 38 265 *~;
#X obj 70 255 nbx 5 14 0 100 0 0 empty \$0-gain empty 0 -8 0 10 -262144
-1 -1 60 256;
#X obj 38 299 *~, f 5;
#X obj 38 187 noise~;
#N canvas 0 23 450 300 gain 0;
#X obj 10 45 dbtorms;
#X obj 10 67 pack f 20;
#X obj 10 89 line~;
#X obj 10 25 inlet;
#X obj 10 111 outlet~;
#X connect 0 0 1 0;
#X connect 1 0 2 0;
#X connect 2 0 4 0;
#X connect 3 0 0 0;
#X restore 70 275 pd gain;
#X obj 56 210 osc~ 5;
#N canvas 453 135 603 301 init 0;
#X obj 13 42 loadbang;
#X obj 13 86 s \$0-gain;
#X obj 89 42 loadbang;
#X obj 53 201 loadbang;
#X obj 89 87 s \$0-pos;
#X msg 89 64 list 0 0;
#X obj 269 42 loadbang;
#X msg 269 64 list 0 0;
#X obj 269 87 s \$0-coord;
#X obj 132 112 loadbang;
#X msg 132 134 0;
#X obj 132 156 s \$0-hardness;
#X obj 222 112 loadbang;
#X obj 222 156 s \$0-opacity;
#X msg 222 134 100;
#X obj 302 112 loadbang;
#X obj 302 156 s \$0-size;
#X msg 13 64 60;
#X msg 53 223 list 0 1;
#X obj 53 246 s \$0-brush1;
#X obj 184 201 loadbang;
#X obj 364 201 loadbang;
#X obj 364 246 s \$0-brush3;
#X obj 184 246 s \$0-brush2;
#X msg 184 223 list 0.9238 -0.3826;
#X msg 115 224 size 1.6;
#X msg 364 223 list -0.9238 -0.3826;
#X msg 306 224 size 1.7;
#X msg 506 224 size 1.7;
#X msg 302 134 1.7;
#X connect 0 0 17 0;
#X connect 2 0 5 0;
#X connect 3 0 18 0;
#X connect 3 0 25 0;
#X connect 5 0 4 0;
#X connect 6 0 7 0;
#X connect 7 0 8 0;
#X connect 9 0 10 0;
#X connect 10 0 11 0;
#X connect 12 0 14 0;
#X connect 14 0 13 0;
#X connect 15 0 29 0;
#X connect 17 0 1 0;
#X connect 18 0 19 0;
#X connect 20 0 24 0;
#X connect 20 0 27 0;
#X connect 21 0 26 0;
#X connect 21 0 28 0;
#X connect 24 0 23 0;
#X connect 25 0 19 0;
#X connect 26 0 22 0;
#X connect 27 0 23 0;
#X connect 28 0 22 0;
#X connect 29 0 16 0;
#X restore 329 703 pd init;
#X obj 38 523 spam~ 36 xel.2d.proj.dbap~ 6 6 8 \$0-config, f 39;
#X text 4 31 The abstraction projects the signals of the soxels onto
a set of loudspeakers using distance based amplitude panning (DBAP).
, f 78;
#X text 4 71 The principles of DBAP are explained in the paper by Trond
Lossius \, Pascal Baltazar and Theo de la Hogue at the International
Computer Music Conference (ICMC) - 2009 Montreal., f 78;
#X text 4 121 The first arguments are the dimension of the matrix \,
the number of rows and the number of columns. The third argument is
the number of loudspeakers. The last argument is the name of the text
object that defines the positions of the loudspeakers \, it can also
be used to define the rolloff and the blur values., f 78;
#X connect 0 0 1 0;
#X connect 1 0 13 0;
#X connect 2 0 14 0;
#X connect 10 0 12 0;
#X connect 10 0 23 0;
#X connect 10 1 12 1;
#X connect 10 1 23 1;
#X connect 10 2 12 2;
#X connect 10 2 23 2;
#X connect 10 3 12 3;
#X connect 10 3 23 3;
#X connect 10 4 12 4;
#X connect 10 4 23 4;
#X connect 10 5 12 5;
#X connect 10 5 23 5;
#X connect 10 6 12 6;
#X connect 10 6 23 6;
#X connect 10 7 12 7;
#X connect 10 7 23 7;
#X connect 10 8 12 8;
#X connect 10 8 23 8;
#X connect 10 9 12 9;
#X connect 10 9 23 9;
#X connect 10 10 12 10;
#X connect 10 10 23 10;
#X connect 10 11 12 11;
#X connect 10 11 23 11;
#X connect 10 12 12 12;
#X connect 10 12 23 12;
#X connect 10 13 12 13;
#X connect 10 13 23 13;
#X connect 10 14 12 14;
#X connect 10 14 23 14;
#X connect 10 15 12 15;
#X connect 10 15 23 15;
#X connect 10 16 12 16;
#X connect 10 16 23 16;
#X connect 10 17 12 17;
#X connect 10 17 23 17;
#X connect 10 18 12 18;
#X connect 10 18 23 18;
#X connect 10 19 12 19;
#X connect 10 19 23 19;
#X connect 10 20 12 20;
#X connect 10 20 23 20;
#X connect 10 21 12 21;
#X connect 10 21 23 21;
#X connect 10 22 12 22;
#X connect 10 22 23 22;
#X connect 10 23 12 23;
#X connect 10 23 23 23;
#X connect 10 24 12 24;
#X connect 10 24 23 24;
#X connect 10 25 12 25;
#X connect 10 25 23 25;
#X connect 10 26 12 26;
#X connect 10 26 23 26;
#X connect 10 27 12 27;
#X connect 10 27 23 27;
#X connect 10 28 12 28;
#X connect 10 28 23 28;
#X connect 10 29 12 29;
#X connect 10 29 23 29;
#X connect 10 30 12 30;
#X connect 10 30 23 30;
#X connect 10 31 12 31;
#X connect 10 31 23 31;
#X connect 10 32 12 32;
#X connect 10 32 23 32;
#X connect 10 33 12 33;
#X connect 10 33 23 33;
#X connect 10 34 12 34;
#X connect 10 34 23 34;
#X connect 10 35 12 35;
#X connect 10 35 23 35;
#X connect 13 0 10 1;
#X connect 14 0 10 1;
#X connect 15 0 16 1;
#X connect 16 0 18 0;
#X connect 17 0 20 0;
#X connect 18 0 10 0;
#X connect 19 0 16 0;
#X connect 20 0 18 1;
#X connect 21 0 15 0;
#X connect 21 0 15 1;
#X connect 23 0 4 0;
#X connect 23 0 11 0;
#X connect 23 1 4 1;
#X connect 23 1 11 1;
#X connect 23 2 4 2;
#X connect 23 2 11 2;
#X connect 23 3 4 3;
#X connect 23 3 11 3;
#X connect 23 4 4 4;
#X connect 23 4 11 4;
#X connect 23 5 4 5;
#X connect 23 5 11 5;
#X connect 23 6 4 6;
#X connect 23 6 11 6;
#X connect 23 7 4 7;
#X connect 23 7 11 7;
