#N struct 1064-stuct-matrix float x1 float y1 float x2 float y2 float
xv float yv float c1 float c2 float val float index;
#N canvas 511 191 528 455 10;
#X obj 6 7 xel.header xel.2d.mat.blur.gaussian;
#X obj 6 364 xel.footer;
#X obj 243 108 bng 15 250 50 0 empty empty empty 17 7 0 10 -262144
-1 -1;
#X text 261 109 Outputs;
#X obj 243 84 loadbang;
#N canvas 0 22 1029 742 \$0-canvas 0;
#X scalar 1064-stuct-matrix -1 1 -0.6 0.6 -0.9 0.8 999 0 0 0 \;;
#X scalar 1064-stuct-matrix -0.6 1 -0.2 0.6 -0.5 0.8 999 0 1 1 \;;
#X scalar 1064-stuct-matrix -0.2 1 0.2 0.6 -0.1 0.8 999 0 2 2 \;;
#X scalar 1064-stuct-matrix 0.2 1 0.6 0.6 0.3 0.8 999 0 1 3 \;;
#X scalar 1064-stuct-matrix 0.6 1 1 0.6 0.7 0.8 999 0 0 4 \;;
#X scalar 1064-stuct-matrix -1 0.6 -0.6 0.2 -0.9 0.4 999 0 1 5 \;;
#X scalar 1064-stuct-matrix -0.6 0.6 -0.2 0.2 -0.5 0.4 999 0 5 6 \;
;
#X scalar 1064-stuct-matrix -0.2 0.6 0.2 0.2 -0.1 0.4 999 0 8 7 \;
;
#X scalar 1064-stuct-matrix 0.2 0.6 0.6 0.2 0.3 0.4 999 0 5 8 \;;
#X scalar 1064-stuct-matrix 0.6 0.6 1 0.2 0.7 0.4 999 0 1 9 \;;
#X scalar 1064-stuct-matrix -1 0.2 -0.6 -0.2 -0.9 -1.49012e-08 999
0 2 10 \;;
#X scalar 1064-stuct-matrix -0.6 0.2 -0.2 -0.2 -0.5 -1.49012e-08 999
0 8 11 \;;
#X scalar 1064-stuct-matrix -0.2 0.2 0.2 -0.2 -0.1 -1.49012e-08 999
0 12 12 \;;
#X scalar 1064-stuct-matrix 0.2 0.2 0.6 -0.2 0.3 -1.49012e-08 999 0
8 13 \;;
#X scalar 1064-stuct-matrix 0.6 0.2 1 -0.2 0.7 -1.49012e-08 999 0 2
14 \;;
#X scalar 1064-stuct-matrix -1 -0.2 -0.6 -0.6 -0.9 -0.4 999 0 1 15
\;;
#X scalar 1064-stuct-matrix -0.6 -0.2 -0.2 -0.6 -0.5 -0.4 999 0 5 16
\;;
#X scalar 1064-stuct-matrix -0.2 -0.2 0.2 -0.6 -0.1 -0.4 999 0 8 17
\;;
#X scalar 1064-stuct-matrix 0.2 -0.2 0.6 -0.6 0.3 -0.4 999 0 5 18 \;
;
#X scalar 1064-stuct-matrix 0.6 -0.2 1 -0.6 0.7 -0.4 999 0 1 19 \;
;
#X scalar 1064-stuct-matrix -1 -0.6 -0.6 -1 -0.9 -0.8 999 0 0 20 \;
;
#X scalar 1064-stuct-matrix -0.6 -0.6 -0.2 -1 -0.5 -0.8 999 0 1 21
\;;
#X scalar 1064-stuct-matrix -0.2 -0.6 0.2 -1 -0.1 -0.8 999 0 2 22 \;
;
#X scalar 1064-stuct-matrix 0.2 -0.6 0.6 -1 0.3 -0.8 999 0 1 23 \;
;
#X scalar 1064-stuct-matrix 0.6 -0.6 1 -1 0.7 -0.8 999 0 0 24 \;;
#X coords -1 1 1 -1 201 201 2 100 100;
#X restore 7 88 pd \$0-canvas;
#X obj 243 186 list prepend set;
#X obj 243 208 list trim;
#X msg 243 230 matrix 5 5 0.00596109 0.0188293 0.0276273 0.0188293
0.00596109 0.0188293 0.0594763 0.0872663 0.0594763 0.0188293 0.0276273
0.0872663 0.128041 0.0872663 0.0276273 0.0188293 0.0594763 0.0872663
0.0594763 0.0188293 0.00596109 0.0188293 0.0276273 0.0188293 0.00596109
, f 38;
#X obj 243 164 xel.2d.gui.mat \$0-canvas 5 5;
#X msg 420 109 deviation \$1;
#X obj 420 90 nbx 5 14 0.001 2 0 0 empty empty empty 0 -8 0 10 -262144
-1 -1 0.571 256;
#X obj 243 142 xel.2d.mat.blur.gaussian 5 5;
#X text 4 31 The abstraction generates a matrix filled with a value
generated with the gaussian function. The matrix can be used for kernel
filter., f 67;
#X obj 323 90 nbx 5 14 0 10 0 0 empty empty empty 0 -8 0 10 -262144
-1 -1 5 256;
#X msg 323 109 matrix \$1 \$1;
#X connect 2 0 12 0;
#X connect 4 0 2 0;
#X connect 6 0 7 0;
#X connect 7 0 8 0;
#X connect 9 0 6 0;
#X connect 10 0 12 0;
#X connect 11 0 10 0;
#X connect 12 0 9 0;
#X connect 14 0 15 0;
#X connect 15 0 12 0;
